<svg width="36" height="40" viewBox="0 0 36 40" fill="none" xmlns="http://www.w3.org/2000/svg">
<path fill-rule="evenodd" clip-rule="evenodd" d="M0.708001 0.607822C0.258 1.09082 0 1.83482 0 2.80182V37.1859C0 38.1529 0.258001 38.8969 0.725001 39.3629L0.847001 39.4659L20.113 20.1998V19.7668L0.830001 0.504822L0.708001 0.607822Z" fill="#4DB6AC"/>
<path fill-rule="evenodd" clip-rule="evenodd" d="M26.522 26.6469L20.096 20.2189V19.7689L26.524 13.3409L26.663 13.4269L34.266 17.7479C36.443 18.9749 36.443 20.9969 34.266 22.2409L26.663 26.5619C26.661 26.5609 26.522 26.6469 26.522 26.6469Z" fill="#FBC02D"/>
<path fill-rule="evenodd" clip-rule="evenodd" d="M26.661 26.5609L20.096 19.9939L0.708008 39.3819C1.41601 40.1429 2.60801 40.2289 3.94001 39.4849L26.661 26.5609Z" fill="#D32F2F"/>
<path fill-rule="evenodd" clip-rule="evenodd" d="M26.661 13.4289L3.94001 0.521856C2.61001 -0.239144 1.41601 -0.136144 0.708008 0.624857L20.094 19.9939L26.661 13.4289Z" fill="#DCE775"/>
</svg>
