<svg width="681" height="139" viewBox="0 0 681 139" fill="none" xmlns="http://www.w3.org/2000/svg">
<g opacity="0.512195">
<path d="M12.3557 137.171C12.0181 137.318 11.7113 137.456 11.4351 137.585C11.165 137.714 10.8091 137.849 10.3672 137.99C9.99281 138.107 9.58468 138.205 9.1428 138.285C8.70705 138.371 8.22527 138.414 7.69747 138.414C6.70323 138.414 5.79798 138.275 4.98172 137.999C4.17159 137.717 3.4658 137.278 2.86435 136.683C2.27517 136.1 1.81487 135.36 1.48346 134.464C1.15204 133.562 0.986328 132.516 0.986328 131.325C0.986328 130.196 1.1459 129.186 1.46504 128.296C1.78418 127.406 2.24447 126.655 2.84593 126.041C3.42897 125.445 4.1317 124.991 4.9541 124.678C5.78263 124.365 6.70016 124.209 7.70667 124.209C8.44315 124.209 9.17655 124.298 9.90689 124.476C10.6434 124.654 11.4596 124.967 12.3557 125.415V127.578H12.2176C11.4627 126.946 10.714 126.486 9.97134 126.197C9.22873 125.909 8.43395 125.765 7.587 125.765C6.89349 125.765 6.26749 125.878 5.70899 126.105C5.15664 126.326 4.66258 126.673 4.22683 127.145C3.80336 127.606 3.47195 128.189 3.23259 128.895C2.99938 129.594 2.88276 130.404 2.88276 131.325C2.88276 132.289 3.01165 133.117 3.26941 133.811C3.53332 134.504 3.87087 135.069 4.28207 135.504C4.71168 135.959 5.21187 136.296 5.78264 136.517C6.35954 136.732 6.96714 136.839 7.60542 136.839C8.48305 136.839 9.30544 136.689 10.0726 136.388C10.8398 136.088 11.5578 135.636 12.2268 135.035H12.3557L12.3557 137.171Z" fill="black"/>
<path d="M23.6053 138.165H14.9333V124.457H16.7561V136.545H23.6053V138.165Z" fill="black"/>
<path d="M30.2612 138.165H24.8481V136.766H26.6433V125.857H24.8481V124.457H30.2612V125.857H28.4661V136.766H30.2612V138.165Z" fill="black"/>
<path d="M43.9504 137.171C43.6128 137.318 43.306 137.456 43.0298 137.585C42.7598 137.714 42.4038 137.849 41.9619 137.99C41.5875 138.107 41.1794 138.205 40.7375 138.285C40.3018 138.371 39.82 138.414 39.2922 138.414C38.2979 138.414 37.3927 138.275 36.5764 137.999C35.7663 137.717 35.0605 137.278 34.4591 136.683C33.8699 136.1 33.4096 135.36 33.0782 134.464C32.7468 133.562 32.5811 132.516 32.5811 131.325C32.5811 130.196 32.7406 129.186 33.0598 128.296C33.3789 127.406 33.8392 126.655 34.4407 126.041C35.0237 125.445 35.7264 124.991 36.5488 124.678C37.3773 124.365 38.2949 124.209 39.3014 124.209C40.0379 124.209 40.7713 124.298 41.5016 124.476C42.2381 124.654 43.0543 124.967 43.9504 125.415V127.578H43.8123C43.0574 126.946 42.3087 126.486 41.5661 126.197C40.8234 125.909 40.0287 125.765 39.1817 125.765C38.4882 125.765 37.8622 125.878 37.3037 126.105C36.7514 126.326 36.2573 126.673 35.8216 127.145C35.3981 127.606 35.0667 128.189 34.8273 128.895C34.5941 129.594 34.4775 130.404 34.4775 131.325C34.4775 132.289 34.6064 133.117 34.8641 133.811C35.128 134.504 35.4656 135.069 35.8768 135.504C36.3064 135.959 36.8066 136.296 37.3774 136.517C37.9543 136.732 38.5619 136.839 39.2001 136.839C40.0778 136.839 40.9002 136.689 41.6673 136.388C42.4345 136.088 43.1525 135.636 43.8215 135.035H43.9504L43.9504 137.171Z" fill="black"/>
<path d="M57.5476 138.165H55.1817L49.7593 132.061L48.3969 133.516V138.165H46.5741V124.457H48.3969V131.61L55.0528 124.457H57.2622L51.1402 130.901L57.5476 138.165Z" fill="black"/>
<path d="M83.026 126.078H76.0939V129.944H82.0501V131.564H76.0939V138.165H74.2711V124.457H83.026V126.078Z" fill="black"/>
<path d="M89.9396 138.165H84.5265V136.766H86.3216V125.857H84.5265V124.457H89.9396V125.857H88.1444V136.766H89.9396V138.165Z" fill="black"/>
<path d="M103.5 138.165H101.244L94.7451 125.903V138.165H93.042V124.457H95.8682L101.797 135.652V124.457H103.5V138.165Z" fill="black"/>
<path d="M118.727 131.325C118.727 132.571 118.453 133.7 117.907 134.713C117.367 135.725 116.646 136.511 115.744 137.069C115.118 137.456 114.418 137.735 113.645 137.907C112.878 138.079 111.865 138.165 110.607 138.165H107.146V124.457H110.57C111.908 124.457 112.97 124.556 113.755 124.752C114.547 124.942 115.216 125.206 115.762 125.544C116.695 126.127 117.422 126.903 117.944 127.873C118.466 128.842 118.727 129.993 118.727 131.325ZM116.821 131.297C116.821 130.223 116.634 129.318 116.259 128.582C115.885 127.845 115.327 127.265 114.584 126.842C114.044 126.535 113.47 126.323 112.862 126.206C112.255 126.084 111.528 126.022 110.681 126.022H108.968V136.6H110.681C111.558 136.6 112.322 136.536 112.973 136.407C113.63 136.278 114.231 136.038 114.777 135.689C115.458 135.253 115.968 134.679 116.305 133.967C116.649 133.255 116.821 132.365 116.821 131.297Z" fill="black"/>
<path d="M145.267 133.949C145.267 134.63 145.138 135.231 144.881 135.753C144.623 136.275 144.276 136.704 143.84 137.042C143.325 137.447 142.757 137.735 142.137 137.907C141.524 138.079 140.741 138.165 139.79 138.165H134.929V124.457H138.989C139.989 124.457 140.738 124.494 141.235 124.568C141.732 124.641 142.208 124.795 142.662 125.028C143.165 125.292 143.53 125.633 143.758 126.05C143.985 126.461 144.098 126.955 144.098 127.532C144.098 128.183 143.932 128.738 143.601 129.198C143.27 129.653 142.828 130.018 142.275 130.294V130.368C143.202 130.558 143.932 130.966 144.466 131.592C145 132.212 145.267 132.997 145.267 133.949ZM142.202 127.771C142.202 127.44 142.147 127.161 142.036 126.934C141.926 126.707 141.748 126.523 141.502 126.381C141.214 126.216 140.864 126.114 140.453 126.078C140.041 126.035 139.532 126.013 138.924 126.013H136.752V129.972H139.109C139.679 129.972 140.134 129.944 140.471 129.889C140.809 129.827 141.122 129.705 141.41 129.521C141.699 129.336 141.901 129.1 142.018 128.812C142.14 128.517 142.202 128.17 142.202 127.771ZM143.371 134.022C143.371 133.47 143.288 133.031 143.122 132.706C142.957 132.381 142.656 132.104 142.22 131.877C141.926 131.724 141.567 131.626 141.143 131.583C140.726 131.534 140.216 131.509 139.615 131.509H136.752V136.609H139.164C139.962 136.609 140.615 136.569 141.125 136.49C141.634 136.404 142.051 136.25 142.377 136.029C142.72 135.79 142.972 135.517 143.132 135.21C143.291 134.903 143.371 134.507 143.371 134.022Z" fill="black"/>
<path d="M158.073 126.031C158.631 126.645 159.058 127.397 159.352 128.287C159.653 129.177 159.803 130.186 159.803 131.316C159.803 132.445 159.65 133.458 159.343 134.354C159.042 135.244 158.619 135.986 158.073 136.581C157.508 137.201 156.839 137.668 156.066 137.981C155.299 138.294 154.421 138.45 153.433 138.45C152.469 138.45 151.592 138.291 150.8 137.972C150.014 137.652 149.346 137.189 148.793 136.581C148.241 135.974 147.814 135.228 147.514 134.344C147.219 133.461 147.072 132.451 147.072 131.316C147.072 130.199 147.219 129.198 147.514 128.315C147.808 127.425 148.238 126.664 148.802 126.031C149.342 125.43 150.011 124.97 150.809 124.651C151.613 124.331 152.488 124.172 153.433 124.172C154.415 124.172 155.296 124.335 156.075 124.66C156.861 124.979 157.527 125.436 158.073 126.031ZM157.907 131.316C157.907 129.536 157.508 128.164 156.71 127.201C155.912 126.231 154.823 125.746 153.442 125.746C152.049 125.746 150.953 126.231 150.156 127.201C149.364 128.164 148.968 129.536 148.968 131.316C148.968 133.114 149.373 134.492 150.183 135.449C150.993 136.4 152.08 136.876 153.442 136.876C154.805 136.876 155.888 136.4 156.692 135.449C157.502 134.492 157.907 133.114 157.907 131.316Z" fill="black"/>
<path d="M172.913 126.031C173.471 126.645 173.898 127.397 174.192 128.287C174.493 129.177 174.643 130.186 174.643 131.316C174.643 132.445 174.49 133.458 174.183 134.354C173.882 135.244 173.459 135.986 172.913 136.581C172.348 137.201 171.679 137.668 170.906 137.981C170.139 138.294 169.261 138.45 168.273 138.45C167.309 138.45 166.432 138.291 165.64 137.972C164.854 137.652 164.185 137.189 163.633 136.581C163.081 135.974 162.654 135.228 162.354 134.344C162.059 133.461 161.912 132.451 161.912 131.316C161.912 130.199 162.059 129.198 162.354 128.315C162.648 127.425 163.078 126.664 163.642 126.031C164.182 125.43 164.851 124.97 165.649 124.651C166.453 124.331 167.328 124.172 168.273 124.172C169.255 124.172 170.136 124.335 170.915 124.66C171.701 124.979 172.366 125.436 172.913 126.031ZM172.747 131.316C172.747 129.536 172.348 128.164 171.55 127.201C170.752 126.231 169.663 125.746 168.282 125.746C166.889 125.746 165.793 126.231 164.996 127.201C164.204 128.164 163.808 129.536 163.808 131.316C163.808 133.114 164.213 134.492 165.023 135.449C165.833 136.4 166.92 136.876 168.282 136.876C169.645 136.876 170.728 136.4 171.532 135.449C172.342 134.492 172.747 133.114 172.747 131.316Z" fill="black"/>
<path d="M188.554 138.165H186.188L180.765 132.061L179.403 133.516V138.165H177.58V124.457H179.403V131.61L186.059 124.457H188.268L182.146 130.901L188.554 138.165Z" fill="black"/>
<path d="M207.002 126.078H202.105V138.165H200.282V126.078H195.384V124.457H207.002V126.078Z" fill="black"/>
<path d="M220.185 138.165H217.819L213.235 132.715H210.666V138.165H208.844V124.457H212.682C213.511 124.457 214.201 124.513 214.754 124.623C215.306 124.727 215.803 124.918 216.245 125.194C216.742 125.507 217.129 125.903 217.405 126.381C217.687 126.854 217.829 127.455 217.829 128.186C217.829 129.174 217.58 130.002 217.083 130.671C216.586 131.334 215.901 131.834 215.03 132.172L220.185 138.165ZM215.923 128.315C215.923 127.922 215.852 127.575 215.711 127.274C215.576 126.967 215.349 126.71 215.03 126.501C214.766 126.323 214.453 126.2 214.091 126.133C213.729 126.059 213.302 126.022 212.811 126.022H210.666V131.196H212.507C213.084 131.196 213.588 131.147 214.017 131.049C214.447 130.944 214.812 130.754 215.113 130.478C215.389 130.22 215.591 129.926 215.72 129.594C215.855 129.257 215.923 128.83 215.923 128.315Z" fill="black"/>
<path d="M232.761 138.165H230.818L229.474 134.345H223.545L222.201 138.165H220.351L225.341 124.457H227.771L232.761 138.165ZM228.912 132.78L226.51 126.05L224.098 132.78H228.912Z" fill="black"/>
<path d="M245.428 137.171C245.09 137.318 244.784 137.456 244.507 137.585C244.237 137.714 243.881 137.849 243.439 137.99C243.065 138.107 242.657 138.205 242.215 138.285C241.779 138.371 241.298 138.414 240.77 138.414C239.775 138.414 238.87 138.275 238.054 137.999C237.244 137.717 236.538 137.278 235.937 136.683C235.347 136.1 234.887 135.36 234.556 134.464C234.224 133.562 234.059 132.516 234.059 131.325C234.059 130.196 234.218 129.186 234.537 128.296C234.856 127.406 235.317 126.655 235.918 126.041C236.501 125.445 237.204 124.991 238.026 124.678C238.855 124.365 239.772 124.209 240.779 124.209C241.515 124.209 242.249 124.298 242.979 124.476C243.716 124.654 244.532 124.967 245.428 125.415V127.578H245.29C244.535 126.946 243.786 126.486 243.044 126.197C242.301 125.909 241.506 125.765 240.659 125.765C239.966 125.765 239.34 125.878 238.781 126.105C238.229 126.326 237.735 126.673 237.299 127.145C236.876 127.606 236.544 128.189 236.305 128.895C236.072 129.594 235.955 130.404 235.955 131.325C235.955 132.289 236.084 133.117 236.342 133.811C236.606 134.504 236.943 135.069 237.354 135.504C237.784 135.959 238.284 136.296 238.855 136.517C239.432 136.732 240.039 136.839 240.678 136.839C241.555 136.839 242.378 136.689 243.145 136.388C243.912 136.088 244.63 135.636 245.299 135.035H245.428V137.171Z" fill="black"/>
<path d="M259.025 138.165H256.659L251.237 132.061L249.874 133.516V138.165H248.052V124.457H249.874V131.61L256.53 124.457H258.74L252.618 130.901L259.025 138.165Z" fill="black"/>
<path d="M284.286 134.252C284.286 134.786 284.16 135.314 283.909 135.836C283.663 136.358 283.316 136.799 282.868 137.162C282.377 137.554 281.804 137.861 281.147 138.082C280.496 138.303 279.711 138.414 278.79 138.414C277.802 138.414 276.912 138.322 276.121 138.137C275.335 137.953 274.534 137.68 273.718 137.318V135.035H273.847C274.54 135.612 275.341 136.057 276.249 136.37C277.158 136.683 278.011 136.839 278.809 136.839C279.938 136.839 280.816 136.628 281.442 136.204C282.074 135.781 282.39 135.216 282.39 134.51C282.39 133.903 282.239 133.455 281.939 133.166C281.644 132.878 281.193 132.654 280.585 132.494C280.125 132.371 279.625 132.27 279.085 132.19C278.551 132.111 277.983 132.009 277.382 131.887C276.167 131.629 275.264 131.19 274.675 130.57C274.092 129.944 273.801 129.131 273.801 128.131C273.801 126.983 274.285 126.044 275.255 125.314C276.225 124.577 277.455 124.209 278.947 124.209C279.91 124.209 280.794 124.301 281.598 124.485C282.402 124.669 283.114 124.896 283.734 125.166V127.32H283.605C283.083 126.879 282.396 126.513 281.543 126.225C280.696 125.93 279.827 125.783 278.938 125.783C277.962 125.783 277.176 125.986 276.581 126.391C275.992 126.796 275.697 127.317 275.697 127.956C275.697 128.526 275.844 128.974 276.139 129.3C276.434 129.625 276.952 129.874 277.695 130.045C278.088 130.131 278.646 130.236 279.37 130.358C280.094 130.481 280.708 130.607 281.211 130.736C282.23 131.006 282.997 131.414 283.513 131.96C284.028 132.506 284.286 133.271 284.286 134.252Z" fill="black"/>
<path d="M297.534 132.66C297.534 133.654 297.423 134.522 297.202 135.265C296.987 136.002 296.631 136.615 296.134 137.106C295.662 137.573 295.109 137.913 294.477 138.128C293.845 138.343 293.109 138.45 292.268 138.45C291.409 138.45 290.66 138.337 290.022 138.11C289.383 137.883 288.846 137.548 288.411 137.106C287.913 136.603 287.554 135.995 287.333 135.284C287.119 134.572 287.011 133.697 287.011 132.66V124.457H288.834V132.752C288.834 133.495 288.883 134.081 288.981 134.51C289.086 134.94 289.257 135.33 289.497 135.679C289.767 136.078 290.132 136.379 290.592 136.582C291.059 136.784 291.617 136.885 292.268 136.885C292.925 136.885 293.483 136.787 293.943 136.591C294.404 136.388 294.772 136.084 295.048 135.679C295.287 135.33 295.456 134.931 295.554 134.483C295.659 134.028 295.711 133.467 295.711 132.798V124.457H297.534L297.534 132.66Z" fill="black"/>
<path d="M311.6 137.171C311.263 137.318 310.956 137.456 310.68 137.585C310.41 137.714 310.054 137.849 309.612 137.99C309.237 138.107 308.829 138.205 308.387 138.285C307.952 138.371 307.47 138.414 306.942 138.414C305.948 138.414 305.043 138.275 304.226 137.999C303.416 137.717 302.71 137.278 302.109 136.683C301.52 136.1 301.059 135.36 300.728 134.464C300.397 133.562 300.231 132.516 300.231 131.325C300.231 130.196 300.391 129.186 300.71 128.296C301.029 127.406 301.489 126.655 302.091 126.041C302.674 125.445 303.376 124.991 304.199 124.678C305.027 124.365 305.945 124.209 306.951 124.209C307.688 124.209 308.421 124.298 309.151 124.476C309.888 124.654 310.704 124.967 311.6 125.415V127.578H311.462C310.707 126.946 309.959 126.486 309.216 126.197C308.473 125.909 307.679 125.765 306.832 125.765C306.138 125.765 305.512 125.878 304.954 126.105C304.401 126.326 303.907 126.673 303.471 127.145C303.048 127.606 302.717 128.189 302.477 128.895C302.244 129.594 302.127 130.404 302.127 131.325C302.127 132.289 302.256 133.117 302.514 133.811C302.778 134.504 303.115 135.069 303.527 135.504C303.956 135.959 304.456 136.296 305.027 136.517C305.604 136.732 306.212 136.839 306.85 136.839C307.728 136.839 308.55 136.689 309.317 136.388C310.084 136.088 310.802 135.636 311.471 135.035H311.6V137.171Z" fill="black"/>
<path d="M324.765 137.171C324.427 137.318 324.12 137.456 323.844 137.585C323.574 137.714 323.218 137.849 322.776 137.99C322.402 138.107 321.994 138.205 321.552 138.285C321.116 138.371 320.634 138.414 320.107 138.414C319.112 138.414 318.207 138.275 317.391 137.999C316.581 137.717 315.875 137.278 315.273 136.683C314.684 136.1 314.224 135.36 313.892 134.464C313.561 133.562 313.395 132.516 313.395 131.325C313.395 130.196 313.555 129.186 313.874 128.296C314.193 127.406 314.654 126.655 315.255 126.041C315.838 125.445 316.541 124.991 317.363 124.678C318.192 124.365 319.109 124.209 320.116 124.209C320.852 124.209 321.586 124.298 322.316 124.476C323.052 124.654 323.869 124.967 324.765 125.415V127.578H324.627C323.872 126.946 323.123 126.486 322.38 126.197C321.638 125.909 320.843 125.765 319.996 125.765C319.303 125.765 318.677 125.878 318.118 126.105C317.566 126.326 317.072 126.673 316.636 127.145C316.212 127.606 315.881 128.189 315.642 128.895C315.408 129.594 315.292 130.404 315.292 131.325C315.292 132.289 315.421 133.117 315.678 133.811C315.942 134.504 316.28 135.069 316.691 135.504C317.121 135.959 317.621 136.296 318.192 136.517C318.769 136.732 319.376 136.839 320.014 136.839C320.892 136.839 321.715 136.689 322.482 136.388C323.249 136.088 323.967 135.636 324.636 135.035H324.765V137.171Z" fill="black"/>
<path d="M336.373 138.165H327.342V124.457H336.373V126.078H329.165V129.834H336.373V131.454H329.165V136.545H336.373V138.165Z" fill="black"/>
<path d="M349.225 134.252C349.225 134.786 349.099 135.314 348.847 135.836C348.602 136.358 348.255 136.799 347.807 137.162C347.316 137.554 346.742 137.861 346.086 138.082C345.435 138.303 344.65 138.414 343.729 138.414C342.741 138.414 341.851 138.322 341.059 138.137C340.274 137.953 339.473 137.68 338.656 137.318V135.035H338.785C339.479 135.612 340.28 136.057 341.188 136.37C342.096 136.683 342.95 136.839 343.747 136.839C344.877 136.839 345.754 136.628 346.38 136.204C347.012 135.781 347.328 135.216 347.328 134.51C347.328 133.903 347.178 133.455 346.877 133.166C346.583 132.878 346.132 132.654 345.524 132.494C345.064 132.371 344.564 132.27 344.024 132.19C343.49 132.111 342.922 132.009 342.32 131.887C341.105 131.629 340.203 131.19 339.614 130.57C339.031 129.944 338.739 129.131 338.739 128.131C338.739 126.983 339.224 126.044 340.194 125.314C341.164 124.577 342.394 124.209 343.885 124.209C344.849 124.209 345.733 124.301 346.537 124.485C347.341 124.669 348.053 124.896 348.673 125.166V127.32H348.544C348.022 126.879 347.335 126.513 346.482 126.225C345.635 125.93 344.766 125.783 343.876 125.783C342.9 125.783 342.115 125.986 341.52 126.391C340.93 126.796 340.636 127.317 340.636 127.956C340.636 128.526 340.783 128.974 341.078 129.3C341.372 129.625 341.891 129.874 342.633 130.045C343.026 130.131 343.585 130.236 344.309 130.358C345.033 130.481 345.647 130.607 346.15 130.736C347.169 131.006 347.936 131.414 348.452 131.96C348.967 132.506 349.225 133.271 349.225 134.252Z" fill="black"/>
<path d="M361.911 134.252C361.911 134.786 361.785 135.314 361.533 135.836C361.288 136.358 360.941 136.799 360.493 137.162C360.002 137.554 359.428 137.861 358.771 138.082C358.121 138.303 357.335 138.414 356.415 138.414C355.427 138.414 354.537 138.322 353.745 138.137C352.959 137.953 352.159 137.68 351.342 137.318V135.035H351.471C352.165 135.612 352.966 136.057 353.874 136.37C354.782 136.683 355.635 136.839 356.433 136.839C357.562 136.839 358.44 136.628 359.066 136.204C359.698 135.781 360.014 135.216 360.014 134.51C360.014 133.903 359.864 133.455 359.563 133.166C359.269 132.878 358.818 132.654 358.21 132.494C357.75 132.371 357.249 132.27 356.709 132.19C356.175 132.111 355.608 132.009 355.006 131.887C353.791 131.629 352.889 131.19 352.3 130.57C351.717 129.944 351.425 129.131 351.425 128.131C351.425 126.983 351.91 126.044 352.88 125.314C353.849 124.577 355.08 124.209 356.571 124.209C357.535 124.209 358.419 124.301 359.223 124.485C360.027 124.669 360.738 124.896 361.358 125.166V127.32H361.229C360.708 126.879 360.02 126.513 359.167 126.225C358.32 125.93 357.452 125.783 356.562 125.783C355.586 125.783 354.801 125.986 354.205 126.391C353.616 126.796 353.322 127.317 353.322 127.956C353.322 128.526 353.469 128.974 353.763 129.3C354.058 129.625 354.577 129.874 355.319 130.045C355.712 130.131 356.271 130.236 356.995 130.358C357.719 130.481 358.333 130.607 358.836 130.736C359.855 131.006 360.622 131.414 361.137 131.96C361.653 132.506 361.911 133.271 361.911 134.252Z" fill="black"/>
<path d="M375.011 130.506H372.811V127.882H375.011V130.506ZM375.011 138.165H372.811V135.541H375.011V138.165Z" fill="black"/>
<path d="M396.617 134.252C396.617 134.786 396.491 135.314 396.24 135.836C395.994 136.358 395.647 136.799 395.199 137.162C394.708 137.554 394.134 137.861 393.478 138.082C392.827 138.303 392.042 138.414 391.121 138.414C390.133 138.414 389.243 138.322 388.451 138.137C387.666 137.953 386.865 137.68 386.049 137.318V135.035H386.177C386.871 135.612 387.672 136.057 388.58 136.37C389.489 136.683 390.342 136.839 391.139 136.839C392.269 136.839 393.146 136.628 393.772 136.204C394.405 135.781 394.721 135.216 394.721 134.51C394.721 133.903 394.57 133.455 394.269 133.166C393.975 132.878 393.524 132.654 392.916 132.494C392.456 132.371 391.956 132.27 391.416 132.19C390.882 132.111 390.314 132.009 389.713 131.887C388.497 131.629 387.595 131.19 387.006 130.57C386.423 129.944 386.131 129.131 386.131 128.131C386.131 126.983 386.616 126.044 387.586 125.314C388.556 124.577 389.786 124.209 391.278 124.209C392.241 124.209 393.125 124.301 393.929 124.485C394.733 124.669 395.445 124.896 396.065 125.166V127.32H395.936C395.414 126.879 394.727 126.513 393.874 126.225C393.027 125.93 392.158 125.783 391.268 125.783C390.293 125.783 389.507 125.986 388.912 126.391C388.323 126.796 388.028 127.317 388.028 127.956C388.028 128.526 388.175 128.974 388.47 129.3C388.764 129.625 389.283 129.874 390.026 130.045C390.418 130.131 390.977 130.236 391.701 130.358C392.425 130.481 393.039 130.607 393.542 130.736C394.561 131.006 395.328 131.414 395.844 131.96C396.359 132.506 396.617 133.271 396.617 134.252Z" fill="black"/>
<path d="M409.864 132.66C409.864 133.654 409.754 134.522 409.533 135.265C409.318 136.002 408.962 136.615 408.465 137.106C407.993 137.573 407.44 137.913 406.808 138.128C406.176 138.343 405.439 138.45 404.599 138.45C403.739 138.45 402.991 138.337 402.352 138.11C401.714 137.883 401.177 137.548 400.741 137.106C400.244 136.603 399.885 135.995 399.664 135.284C399.449 134.572 399.342 133.697 399.342 132.66V124.457H401.165V132.752C401.165 133.495 401.214 134.081 401.312 134.51C401.417 134.94 401.588 135.33 401.828 135.679C402.098 136.078 402.463 136.379 402.923 136.582C403.39 136.784 403.948 136.885 404.599 136.885C405.255 136.885 405.814 136.787 406.274 136.591C406.735 136.388 407.103 136.084 407.379 135.679C407.618 135.33 407.787 134.931 407.885 134.483C407.99 134.028 408.042 133.467 408.042 132.798V124.457H409.865L409.864 132.66Z" fill="black"/>
<path d="M423.931 137.171C423.594 137.318 423.287 137.456 423.011 137.585C422.74 137.714 422.384 137.849 421.943 137.99C421.568 138.107 421.16 138.205 420.718 138.285C420.282 138.371 419.801 138.414 419.273 138.414C418.279 138.414 417.373 138.275 416.557 137.999C415.747 137.717 415.041 137.278 414.44 136.683C413.851 136.1 413.39 135.36 413.059 134.464C412.727 133.562 412.562 132.516 412.562 131.325C412.562 130.196 412.721 129.186 413.04 128.296C413.36 127.406 413.82 126.655 414.421 126.041C415.004 125.445 415.707 124.991 416.53 124.678C417.358 124.365 418.276 124.209 419.282 124.209C420.019 124.209 420.752 124.298 421.482 124.476C422.219 124.654 423.035 124.967 423.931 125.415V127.578H423.793C423.038 126.946 422.29 126.486 421.547 126.197C420.804 125.909 420.01 125.765 419.163 125.765C418.469 125.765 417.843 125.878 417.285 126.105C416.732 126.326 416.238 126.673 415.802 127.145C415.379 127.606 415.048 128.189 414.808 128.895C414.575 129.594 414.458 130.404 414.458 131.325C414.458 132.289 414.587 133.117 414.845 133.811C415.109 134.504 415.446 135.069 415.858 135.504C416.287 135.959 416.787 136.296 417.358 136.517C417.935 136.732 418.543 136.839 419.181 136.839C420.059 136.839 420.881 136.689 421.648 136.388C422.415 136.088 423.133 135.636 423.802 135.035H423.931L423.931 137.171Z" fill="black"/>
<path d="M437.096 137.171C436.758 137.318 436.451 137.456 436.175 137.585C435.905 137.714 435.549 137.849 435.107 137.99C434.733 138.107 434.325 138.205 433.883 138.285C433.447 138.371 432.965 138.414 432.437 138.414C431.443 138.414 430.538 138.275 429.722 137.999C428.911 137.717 428.206 137.278 427.604 136.683C427.015 136.1 426.555 135.36 426.223 134.464C425.892 133.562 425.726 132.516 425.726 131.325C425.726 130.196 425.886 129.186 426.205 128.296C426.524 127.406 426.984 126.655 427.586 126.041C428.169 125.445 428.872 124.991 429.694 124.678C430.523 124.365 431.44 124.209 432.447 124.209C433.183 124.209 433.916 124.298 434.647 124.476C435.383 124.654 436.199 124.967 437.096 125.415V127.578H436.958C436.203 126.946 435.454 126.486 434.711 126.197C433.969 125.909 433.174 125.765 432.327 125.765C431.633 125.765 431.007 125.878 430.449 126.105C429.897 126.326 429.403 126.673 428.967 127.145C428.543 127.606 428.212 128.189 427.973 128.895C427.739 129.594 427.623 130.404 427.623 131.325C427.623 132.289 427.752 133.117 428.009 133.811C428.273 134.504 428.611 135.069 429.022 135.504C429.452 135.959 429.952 136.296 430.523 136.517C431.1 136.732 431.707 136.839 432.345 136.839C433.223 136.839 434.045 136.689 434.813 136.388C435.58 136.088 436.298 135.636 436.967 135.035H437.096L437.096 137.171Z" fill="black"/>
<path d="M448.704 138.165H439.673V124.457H448.704V126.078H441.496V129.834H448.704V131.454H441.496V136.545H448.704V138.165Z" fill="black"/>
<path d="M461.556 134.252C461.556 134.786 461.43 135.314 461.178 135.836C460.933 136.358 460.586 136.799 460.138 137.162C459.647 137.554 459.073 137.861 458.417 138.082C457.766 138.303 456.98 138.414 456.06 138.414C455.072 138.414 454.182 138.322 453.39 138.137C452.604 137.953 451.804 137.68 450.987 137.318V135.035H451.116C451.81 135.612 452.611 136.057 453.519 136.37C454.427 136.683 455.28 136.839 456.078 136.839C457.207 136.839 458.085 136.628 458.711 136.204C459.343 135.781 459.659 135.216 459.659 134.51C459.659 133.903 459.509 133.455 459.208 133.166C458.914 132.878 458.463 132.654 457.855 132.494C457.395 132.371 456.894 132.27 456.354 132.19C455.82 132.111 455.253 132.009 454.651 131.887C453.436 131.629 452.534 131.19 451.945 130.57C451.362 129.944 451.07 129.131 451.07 128.131C451.07 126.983 451.555 126.044 452.525 125.314C453.494 124.577 454.725 124.209 456.216 124.209C457.18 124.209 458.064 124.301 458.868 124.485C459.672 124.669 460.383 124.896 461.003 125.166V127.32H460.875C460.353 126.879 459.665 126.513 458.812 126.225C457.965 125.93 457.097 125.783 456.207 125.783C455.231 125.783 454.446 125.986 453.85 126.391C453.261 126.796 452.967 127.317 452.967 127.956C452.967 128.526 453.114 128.974 453.408 129.3C453.703 129.625 454.222 129.874 454.964 130.045C455.357 130.131 455.916 130.236 456.64 130.358C457.364 130.481 457.978 130.607 458.481 130.736C459.5 131.006 460.267 131.414 460.782 131.96C461.298 132.506 461.556 133.271 461.556 134.252Z" fill="black"/>
<path d="M474.242 134.252C474.242 134.786 474.116 135.314 473.864 135.836C473.619 136.358 473.272 136.799 472.824 137.162C472.333 137.554 471.759 137.861 471.102 138.082C470.452 138.303 469.666 138.414 468.746 138.414C467.757 138.414 466.868 138.322 466.076 138.137C465.29 137.953 464.489 137.68 463.673 137.318V135.035H463.802C464.495 135.612 465.296 136.057 466.205 136.37C467.113 136.683 467.966 136.839 468.764 136.839C469.893 136.839 470.771 136.628 471.397 136.204C472.029 135.781 472.345 135.216 472.345 134.51C472.345 133.903 472.195 133.455 471.894 133.166C471.599 132.878 471.148 132.654 470.541 132.494C470.08 132.371 469.58 132.27 469.04 132.19C468.506 132.111 467.938 132.009 467.337 131.887C466.122 131.629 465.22 131.19 464.63 130.57C464.047 129.944 463.756 129.131 463.756 128.131C463.756 126.983 464.241 126.044 465.21 125.314C466.18 124.577 467.411 124.209 468.902 124.209C469.866 124.209 470.749 124.301 471.553 124.485C472.357 124.669 473.069 124.896 473.689 125.166V127.32H473.56C473.039 126.879 472.351 126.513 471.498 126.225C470.651 125.93 469.783 125.783 468.893 125.783C467.917 125.783 467.131 125.986 466.536 126.391C465.947 126.796 465.652 127.317 465.652 127.956C465.652 128.526 465.8 128.974 466.094 129.3C466.389 129.625 466.907 129.874 467.65 130.045C468.043 130.131 468.601 130.236 469.326 130.358C470.05 130.481 470.663 130.607 471.167 130.736C472.186 131.006 472.953 131.414 473.468 131.96C473.984 132.506 474.242 133.271 474.242 134.252Z" fill="black"/>
<path d="M493.758 134.252C493.758 134.786 493.632 135.314 493.381 135.836C493.135 136.358 492.788 136.799 492.34 137.162C491.849 137.554 491.276 137.861 490.619 138.082C489.968 138.303 489.183 138.414 488.262 138.414C487.274 138.414 486.384 138.322 485.592 138.137C484.807 137.953 484.006 137.68 483.19 137.318V135.035H483.319C484.012 135.612 484.813 136.057 485.721 136.37C486.63 136.683 487.483 136.839 488.28 136.839C489.41 136.839 490.287 136.628 490.913 136.204C491.546 135.781 491.862 135.216 491.862 134.51C491.862 133.903 491.711 133.455 491.411 133.166C491.116 132.878 490.665 132.654 490.057 132.494C489.597 132.371 489.097 132.27 488.557 132.19C488.023 132.111 487.455 132.009 486.854 131.887C485.638 131.629 484.736 131.19 484.147 130.57C483.564 129.944 483.272 129.131 483.272 128.131C483.272 126.983 483.757 126.044 484.727 125.314C485.697 124.577 486.927 124.209 488.419 124.209C489.382 124.209 490.266 124.301 491.07 124.485C491.874 124.669 492.586 124.896 493.206 125.166V127.32H493.077C492.555 126.879 491.868 126.513 491.015 126.225C490.168 125.93 489.299 125.783 488.409 125.783C487.434 125.783 486.648 125.986 486.053 126.391C485.464 126.796 485.169 127.317 485.169 127.956C485.169 128.526 485.316 128.974 485.611 129.3C485.905 129.625 486.424 129.874 487.167 130.045C487.559 130.131 488.118 130.236 488.842 130.358C489.566 130.481 490.18 130.607 490.683 130.736C491.702 131.006 492.469 131.414 492.985 131.96C493.5 132.506 493.758 133.271 493.758 134.252Z" fill="black"/>
<path d="M506.462 126.078H501.565V138.165H499.742V126.078H494.844V124.457H506.462V126.078Z" fill="black"/>
<path d="M518.007 138.165H516.064L514.72 134.345H508.792L507.447 138.165H505.597L510.587 124.457H513.017L518.007 138.165ZM514.159 132.78L511.756 126.05L509.344 132.78H514.159Z" fill="black"/>
<path d="M531.429 138.165H529.063L524.478 132.715H521.91V138.165H520.087V124.457H523.926C524.755 124.457 525.445 124.513 525.997 124.623C526.55 124.727 527.047 124.918 527.489 125.194C527.986 125.507 528.373 125.903 528.649 126.381C528.931 126.854 529.072 127.455 529.072 128.186C529.072 129.174 528.824 130.002 528.326 130.671C527.829 131.334 527.145 131.834 526.274 132.172L531.429 138.165ZM527.167 128.315C527.167 127.922 527.096 127.575 526.955 127.274C526.82 126.967 526.593 126.71 526.274 126.501C526.01 126.323 525.697 126.2 525.335 126.133C524.973 126.059 524.546 126.022 524.055 126.022H521.91V131.196H523.751C524.328 131.196 524.831 131.147 525.261 131.049C525.691 130.944 526.056 130.754 526.357 130.478C526.633 130.22 526.835 129.926 526.964 129.594C527.099 129.257 527.167 128.83 527.167 128.315Z" fill="black"/>
<path d="M542.421 126.078H537.523V138.165H535.7V126.078H530.803V124.457H542.421V126.078Z" fill="black"/>
<path d="M554.112 134.252C554.112 134.786 553.987 135.314 553.735 135.836C553.489 136.358 553.143 136.799 552.695 137.162C552.204 137.554 551.63 137.861 550.973 138.082C550.323 138.303 549.537 138.414 548.616 138.414C547.628 138.414 546.738 138.322 545.947 138.137C545.161 137.953 544.36 137.68 543.544 137.318V135.035H543.673C544.366 135.612 545.167 136.057 546.075 136.37C546.984 136.683 547.837 136.839 548.635 136.839C549.764 136.839 550.642 136.628 551.268 136.204C551.9 135.781 552.216 135.216 552.216 134.51C552.216 133.903 552.065 133.455 551.765 133.166C551.47 132.878 551.019 132.654 550.411 132.494C549.951 132.371 549.451 132.27 548.911 132.19C548.377 132.111 547.809 132.009 547.208 131.887C545.993 131.629 545.09 131.19 544.501 130.57C543.918 129.944 543.627 129.131 543.627 128.131C543.627 126.983 544.112 126.044 545.081 125.314C546.051 124.577 547.281 124.209 548.773 124.209C549.736 124.209 550.62 124.301 551.424 124.485C552.228 124.669 552.94 124.896 553.56 125.166V127.32H553.431C552.909 126.879 552.222 126.513 551.369 126.225C550.522 125.93 549.654 125.783 548.764 125.783C547.788 125.783 547.002 125.986 546.407 126.391C545.818 126.796 545.523 127.317 545.523 127.956C545.523 128.526 545.671 128.974 545.965 129.3C546.26 129.625 546.778 129.874 547.521 130.045C547.914 130.131 548.472 130.236 549.196 130.358C549.921 130.481 550.534 130.607 551.038 130.736C552.056 131.006 552.823 131.414 553.339 131.96C553.855 132.506 554.112 133.271 554.112 134.252Z" fill="black"/>
<path d="M579.622 124.457L576.059 138.165H574.006L571.125 126.786L568.308 138.165H566.301L562.674 124.457H564.543L567.424 135.854L570.26 124.457H572.11L574.973 135.965L577.836 124.457H579.622Z" fill="black"/>
<path d="M587.143 138.165H581.73V136.766H583.525V125.857H581.73V124.457H587.143V125.857H585.348V136.766H587.143V138.165Z" fill="black"/>
<path d="M600.022 126.078H595.125V138.165H593.302V126.078H588.404V124.457H600.022V126.078Z" fill="black"/>
<path d="M612.349 138.165H610.526V131.454H603.686V138.165H601.864V124.457H603.686V129.834H610.526V124.457H612.349V138.165Z" fill="black"/>
<path d="M633.247 137.171C632.909 137.318 632.602 137.456 632.326 137.585C632.056 137.714 631.7 137.849 631.258 137.99C630.884 138.107 630.476 138.205 630.034 138.285C629.598 138.371 629.116 138.414 628.589 138.414C627.594 138.414 626.689 138.275 625.873 137.999C625.063 137.717 624.357 137.278 623.755 136.683C623.166 136.1 622.706 135.36 622.375 134.464C622.043 133.562 621.877 132.516 621.877 131.325C621.877 130.196 622.037 129.186 622.356 128.296C622.675 127.406 623.136 126.655 623.737 126.041C624.32 125.445 625.023 124.991 625.845 124.678C626.674 124.365 627.591 124.209 628.598 124.209C629.334 124.209 630.068 124.298 630.798 124.476C631.534 124.654 632.351 124.967 633.247 125.415V127.578H633.109C632.354 126.946 631.605 126.486 630.862 126.197C630.12 125.909 629.325 125.765 628.478 125.765C627.785 125.765 627.159 125.878 626.6 126.105C626.048 126.326 625.554 126.673 625.118 127.145C624.695 127.606 624.363 128.189 624.124 128.895C623.891 129.594 623.774 130.404 623.774 131.325C623.774 132.289 623.903 133.117 624.161 133.811C624.424 134.504 624.762 135.069 625.173 135.504C625.603 135.959 626.103 136.296 626.674 136.517C627.251 136.732 627.858 136.839 628.497 136.839C629.374 136.839 630.197 136.689 630.964 136.388C631.731 136.088 632.449 135.636 633.118 135.035H633.247L633.247 137.171Z" fill="black"/>
<path d="M644.496 138.165H635.824V124.457H637.647V136.545H644.496V138.165Z" fill="black"/>
<path d="M651.152 138.165H645.739V136.766H647.534V125.857H645.739V124.457H651.152V125.857H649.357V136.766H651.152V138.165Z" fill="black"/>
<path d="M664.842 137.171C664.504 137.318 664.197 137.456 663.921 137.585C663.651 137.714 663.295 137.849 662.853 137.99C662.479 138.107 662.071 138.205 661.629 138.285C661.193 138.371 660.711 138.414 660.183 138.414C659.189 138.414 658.284 138.275 657.468 137.999C656.657 137.717 655.952 137.278 655.35 136.683C654.761 136.1 654.301 135.36 653.969 134.464C653.638 133.562 653.472 132.516 653.472 131.325C653.472 130.196 653.632 129.186 653.951 128.296C654.27 127.406 654.73 126.655 655.332 126.041C655.915 125.445 656.618 124.991 657.44 124.678C658.268 124.365 659.186 124.209 660.193 124.209C660.929 124.209 661.662 124.298 662.393 124.476C663.129 124.654 663.945 124.967 664.842 125.415V127.578H664.704C663.949 126.946 663.2 126.486 662.457 126.197C661.715 125.909 660.92 125.765 660.073 125.765C659.379 125.765 658.753 125.878 658.195 126.105C657.643 126.326 657.149 126.673 656.713 127.145C656.289 127.606 655.958 128.189 655.719 128.895C655.485 129.594 655.369 130.404 655.369 131.325C655.369 132.289 655.498 133.117 655.755 133.811C656.019 134.504 656.357 135.069 656.768 135.504C657.198 135.959 657.698 136.296 658.269 136.517C658.845 136.732 659.453 136.839 660.091 136.839C660.969 136.839 661.791 136.689 662.559 136.388C663.326 136.088 664.044 135.636 664.713 135.035H664.842L664.842 137.171Z" fill="black"/>
<path d="M678.439 138.165H676.073L670.65 132.061L669.288 133.516V138.165H667.465V124.457H669.288V131.61L675.944 124.457H678.153L672.031 130.901L678.439 138.165Z" fill="black"/>
</g>
<path d="M13.7789 137.171C13.4413 137.318 13.1345 137.456 12.8583 137.585C12.5883 137.714 12.2323 137.849 11.7904 137.99C11.416 138.107 11.0079 138.205 10.566 138.285C10.1303 138.371 9.64849 138.414 9.12069 138.414C8.12644 138.414 7.22119 138.275 6.40493 137.999C5.59481 137.717 4.88902 137.278 4.28756 136.683C3.69838 136.1 3.23809 135.36 2.90667 134.464C2.57526 133.562 2.40955 132.516 2.40955 131.325C2.40955 130.196 2.56912 129.186 2.88826 128.296C3.2074 127.406 3.66769 126.655 4.26915 126.041C4.85219 125.445 5.55492 124.991 6.37731 124.678C7.20585 124.365 8.12337 124.209 9.12989 124.209C9.86636 124.209 10.5998 124.298 11.3301 124.476C12.0666 124.654 12.8828 124.967 13.7789 125.415V127.578H13.6408C12.8859 126.946 12.1372 126.486 11.3946 126.197C10.6519 125.909 9.85716 125.765 9.01022 125.765C8.31671 125.765 7.6907 125.878 7.13221 126.105C6.57985 126.326 6.0858 126.673 5.65005 127.145C5.22657 127.606 4.89516 128.189 4.65581 128.895C4.42259 129.594 4.30598 130.404 4.30598 131.325C4.30598 132.289 4.43487 133.117 4.69263 133.811C4.95653 134.504 5.29409 135.069 5.70529 135.504C6.1349 135.959 6.63509 136.296 7.20586 136.517C7.78276 136.732 8.39036 136.839 9.02863 136.839C9.90627 136.839 10.7287 136.689 11.4958 136.388C12.263 136.088 12.9811 135.636 13.65 135.035H13.7789L13.7789 137.171Z" fill="white" stroke="white" stroke-width="0.471343"/>
<path d="M25.0286 138.165H16.3566V124.457H18.1793V136.545H25.0286V138.165Z" fill="white" stroke="white" stroke-width="0.471343"/>
<path d="M31.6845 138.165H26.2714V136.766H28.0665V125.857H26.2714V124.457H31.6845V125.857H29.8893V136.766H31.6845V138.165Z" fill="white" stroke="white" stroke-width="0.471343"/>
<path d="M45.3736 137.171C45.0361 137.318 44.7292 137.456 44.453 137.585C44.183 137.714 43.827 137.849 43.3851 137.99C43.0107 138.107 42.6026 138.205 42.1607 138.285C41.725 138.371 41.2432 138.414 40.7154 138.414C39.7212 138.414 38.8159 138.275 37.9996 137.999C37.1895 137.717 36.4837 137.278 35.8823 136.683C35.2931 136.1 34.8328 135.36 34.5014 134.464C34.17 133.562 34.0043 132.516 34.0043 131.325C34.0043 130.196 34.1638 129.186 34.483 128.296C34.8021 127.406 35.2624 126.655 35.8639 126.041C36.4469 125.445 37.1496 124.991 37.972 124.678C38.8006 124.365 39.7181 124.209 40.7246 124.209C41.4611 124.209 42.1945 124.298 42.9248 124.476C43.6613 124.654 44.4776 124.967 45.3736 125.415V127.578H45.2355C44.4806 126.946 43.7319 126.486 42.9893 126.197C42.2467 125.909 41.4519 125.765 40.6049 125.765C39.9114 125.765 39.2854 125.878 38.7269 126.105C38.1746 126.326 37.6805 126.673 37.2448 127.145C36.8213 127.606 36.4899 128.189 36.2505 128.895C36.0173 129.594 35.9007 130.404 35.9007 131.325C35.9007 132.289 36.0296 133.117 36.2874 133.811C36.5513 134.504 36.8888 135.069 37.3 135.504C37.7296 135.959 38.2298 136.296 38.8006 136.517C39.3775 136.732 39.9851 136.839 40.6234 136.839C41.501 136.839 42.3234 136.689 43.0905 136.388C43.8577 136.088 44.5758 135.636 45.2447 135.035H45.3736L45.3736 137.171Z" fill="white" stroke="white" stroke-width="0.471343"/>
<path d="M58.9708 138.165H56.6049L51.1826 132.061L49.8201 133.516V138.165H47.9973V124.457H49.8201V131.61L56.476 124.457H58.6854L52.5635 130.901L58.9708 138.165Z" fill="white" stroke="white" stroke-width="0.471343"/>
<path d="M84.4492 126.078H77.5171V129.944H83.4734V131.564H77.5171V138.165H75.6943V124.457H84.4492V126.078Z" fill="white" stroke="white" stroke-width="0.471343"/>
<path d="M91.3628 138.165H85.9497V136.766H87.7449V125.857H85.9497V124.457H91.3628V125.857H89.5676V136.766H91.3628V138.165Z" fill="white" stroke="white" stroke-width="0.471343"/>
<path d="M104.923 138.165H102.668L96.1683 125.903V138.165H94.4652V124.457H97.2914L103.22 135.652V124.457H104.923V138.165Z" fill="white" stroke="white" stroke-width="0.471343"/>
<path d="M120.15 131.325C120.15 132.571 119.877 133.7 119.33 134.713C118.79 135.725 118.069 136.511 117.167 137.069C116.541 137.456 115.841 137.735 115.068 137.907C114.301 138.079 113.288 138.165 112.03 138.165H108.569V124.457H111.993C113.331 124.457 114.393 124.556 115.179 124.752C115.97 124.942 116.639 125.206 117.185 125.544C118.118 126.127 118.846 126.903 119.367 127.873C119.889 128.842 120.15 129.993 120.15 131.325ZM118.244 131.297C118.244 130.223 118.057 129.318 117.683 128.582C117.308 127.845 116.75 127.265 116.007 126.842C115.467 126.535 114.893 126.323 114.286 126.206C113.678 126.084 112.951 126.022 112.104 126.022H110.392V136.6H112.104C112.981 136.6 113.746 136.536 114.396 136.407C115.053 136.278 115.654 136.038 116.2 135.689C116.882 135.253 117.391 134.679 117.729 133.967C118.072 133.255 118.244 132.365 118.244 131.297Z" fill="white" stroke="white" stroke-width="0.471343"/>
<path d="M146.691 133.949C146.691 134.63 146.562 135.231 146.304 135.753C146.046 136.275 145.699 136.704 145.264 137.042C144.748 137.447 144.18 137.735 143.561 137.907C142.947 138.079 142.164 138.165 141.213 138.165H136.352V124.457H140.412C141.412 124.457 142.161 124.494 142.658 124.568C143.155 124.641 143.631 124.795 144.085 125.028C144.589 125.292 144.954 125.633 145.181 126.05C145.408 126.461 145.521 126.955 145.521 127.532C145.521 128.183 145.356 128.738 145.024 129.198C144.693 129.653 144.251 130.018 143.699 130.294V130.368C144.625 130.558 145.356 130.966 145.89 131.592C146.424 132.212 146.691 132.997 146.691 133.949ZM143.625 127.771C143.625 127.44 143.57 127.161 143.459 126.934C143.349 126.707 143.171 126.523 142.925 126.381C142.637 126.216 142.287 126.114 141.876 126.078C141.465 126.035 140.955 126.013 140.348 126.013H138.175V129.972H140.532C141.103 129.972 141.557 129.944 141.894 129.889C142.232 129.827 142.545 129.705 142.833 129.521C143.122 129.336 143.324 129.1 143.441 128.812C143.564 128.517 143.625 128.17 143.625 127.771ZM144.794 134.022C144.794 133.47 144.711 133.031 144.546 132.706C144.38 132.381 144.079 132.104 143.643 131.877C143.349 131.724 142.99 131.626 142.566 131.583C142.149 131.534 141.64 131.509 141.038 131.509H138.175V136.609H140.587C141.385 136.609 142.038 136.569 142.548 136.49C143.057 136.404 143.475 136.25 143.8 136.029C144.144 135.79 144.395 135.517 144.555 135.21C144.714 134.903 144.794 134.507 144.794 134.022Z" fill="white" stroke="white" stroke-width="0.471343"/>
<path d="M159.496 126.031C160.054 126.645 160.481 127.397 160.776 128.287C161.076 129.177 161.227 130.186 161.227 131.316C161.227 132.445 161.073 133.458 160.766 134.354C160.466 135.244 160.042 135.986 159.496 136.581C158.931 137.201 158.262 137.668 157.489 137.981C156.722 138.294 155.844 138.45 154.856 138.45C153.893 138.45 153.015 138.291 152.223 137.972C151.438 137.652 150.769 137.189 150.216 136.581C149.664 135.974 149.237 135.228 148.937 134.344C148.642 133.461 148.495 132.451 148.495 131.316C148.495 130.199 148.642 129.198 148.937 128.315C149.231 127.425 149.661 126.664 150.226 126.031C150.766 125.43 151.435 124.97 152.232 124.651C153.036 124.331 153.911 124.172 154.856 124.172C155.838 124.172 156.719 124.335 157.498 124.66C158.284 124.979 158.95 125.436 159.496 126.031ZM159.33 131.316C159.33 129.536 158.931 128.164 158.133 127.201C157.336 126.231 156.246 125.746 154.865 125.746C153.472 125.746 152.377 126.231 151.579 127.201C150.787 128.164 150.391 129.536 150.391 131.316C150.391 133.114 150.796 134.492 151.606 135.449C152.417 136.4 153.503 136.876 154.865 136.876C156.228 136.876 157.311 136.4 158.115 135.449C158.925 134.492 159.33 133.114 159.33 131.316Z" fill="white" stroke="white" stroke-width="0.471343"/>
<path d="M174.336 126.031C174.894 126.645 175.321 127.397 175.616 128.287C175.916 129.177 176.067 130.186 176.067 131.316C176.067 132.445 175.913 133.458 175.606 134.354C175.306 135.244 174.882 135.986 174.336 136.581C173.771 137.201 173.102 137.668 172.329 137.981C171.562 138.294 170.684 138.45 169.696 138.45C168.733 138.45 167.855 138.291 167.063 137.972C166.278 137.652 165.609 137.189 165.056 136.581C164.504 135.974 164.077 135.228 163.777 134.344C163.482 133.461 163.335 132.451 163.335 131.316C163.335 130.199 163.482 129.198 163.777 128.315C164.071 127.425 164.501 126.664 165.066 126.031C165.606 125.43 166.275 124.97 167.072 124.651C167.876 124.331 168.751 124.172 169.696 124.172C170.678 124.172 171.559 124.335 172.338 124.66C173.124 124.979 173.79 125.436 174.336 126.031ZM174.17 131.316C174.17 129.536 173.771 128.164 172.973 127.201C172.176 126.231 171.086 125.746 169.705 125.746C168.312 125.746 167.217 126.231 166.419 127.201C165.627 128.164 165.231 129.536 165.231 131.316C165.231 133.114 165.636 134.492 166.446 135.449C167.257 136.4 168.343 136.876 169.705 136.876C171.068 136.876 172.151 136.4 172.955 135.449C173.765 134.492 174.17 133.114 174.17 131.316Z" fill="white" stroke="white" stroke-width="0.471343"/>
<path d="M189.977 138.165H187.611L182.189 132.061L180.826 133.516V138.165H179.003V124.457H180.826V131.61L187.482 124.457H189.692L183.57 130.901L189.977 138.165Z" fill="white" stroke="white" stroke-width="0.471343"/>
<path d="M208.426 126.078H203.528V138.165H201.705V126.078H196.808V124.457H208.426V126.078Z" fill="white" stroke="white" stroke-width="0.471343"/>
<path d="M221.608 138.165H219.243L214.658 132.715H212.09V138.165H210.267V124.457H214.106C214.934 124.457 215.625 124.513 216.177 124.623C216.729 124.727 217.226 124.918 217.668 125.194C218.165 125.507 218.552 125.903 218.828 126.381C219.111 126.854 219.252 127.455 219.252 128.186C219.252 129.174 219.003 130.002 218.506 130.671C218.009 131.334 217.325 131.834 216.453 132.172L221.608 138.165ZM217.346 128.315C217.346 127.922 217.276 127.575 217.134 127.274C216.999 126.967 216.772 126.71 216.453 126.501C216.189 126.323 215.876 126.2 215.514 126.133C215.152 126.059 214.725 126.022 214.234 126.022H212.089V131.196H213.931C214.508 131.196 215.011 131.147 215.44 131.049C215.87 130.944 216.235 130.754 216.536 130.478C216.812 130.22 217.015 129.926 217.144 129.594C217.279 129.257 217.346 128.83 217.346 128.315Z" fill="white" stroke="white" stroke-width="0.471343"/>
<path d="M234.184 138.165H232.241L230.897 134.345H224.969L223.625 138.165H221.774L226.764 124.457H229.194L234.184 138.165ZM230.336 132.78L227.933 126.05L225.521 132.78H230.336Z" fill="white" stroke="white" stroke-width="0.471343"/>
<path d="M246.851 137.171C246.514 137.318 246.207 137.456 245.931 137.585C245.661 137.714 245.305 137.849 244.863 137.99C244.488 138.107 244.08 138.205 243.638 138.285C243.203 138.371 242.721 138.414 242.193 138.414C241.199 138.414 240.293 138.275 239.477 137.999C238.667 137.717 237.961 137.278 237.36 136.683C236.771 136.1 236.31 135.36 235.979 134.464C235.648 133.562 235.482 132.516 235.482 131.325C235.482 130.196 235.641 129.186 235.961 128.296C236.28 127.406 236.74 126.655 237.341 126.041C237.924 125.445 238.627 124.991 239.45 124.678C240.278 124.365 241.196 124.209 242.202 124.209C242.939 124.209 243.672 124.298 244.402 124.476C245.139 124.654 245.955 124.967 246.851 125.415V127.578H246.713C245.958 126.946 245.209 126.486 244.467 126.197C243.724 125.909 242.929 125.765 242.082 125.765C241.389 125.765 240.763 125.878 240.204 126.105C239.652 126.326 239.158 126.673 238.722 127.145C238.299 127.606 237.967 128.189 237.728 128.895C237.495 129.594 237.378 130.404 237.378 131.325C237.378 132.289 237.507 133.117 237.765 133.811C238.029 134.504 238.366 135.069 238.778 135.504C239.207 135.959 239.707 136.296 240.278 136.517C240.855 136.732 241.463 136.839 242.101 136.839C242.979 136.839 243.801 136.689 244.568 136.388C245.335 136.088 246.053 135.636 246.722 135.035H246.851V137.171Z" fill="white" stroke="white" stroke-width="0.471343"/>
<path d="M260.448 138.165H258.082L252.66 132.061L251.298 133.516V138.165H249.475V124.457H251.298V131.61L257.954 124.457H260.163L254.041 130.901L260.448 138.165Z" fill="white" stroke="white" stroke-width="0.471343"/>
<path d="M285.709 134.252C285.709 134.786 285.584 135.314 285.332 135.836C285.086 136.358 284.74 136.799 284.292 137.162C283.801 137.554 283.227 137.861 282.57 138.082C281.92 138.303 281.134 138.414 280.213 138.414C279.225 138.414 278.335 138.322 277.544 138.137C276.758 137.953 275.957 137.68 275.141 137.318V135.035H275.27C275.963 135.612 276.764 136.057 277.673 136.37C278.581 136.683 279.434 136.839 280.232 136.839C281.361 136.839 282.239 136.628 282.865 136.204C283.497 135.781 283.813 135.216 283.813 134.51C283.813 133.903 283.663 133.455 283.362 133.166C283.067 132.878 282.616 132.654 282.009 132.494C281.548 132.371 281.048 132.27 280.508 132.19C279.974 132.111 279.406 132.009 278.805 131.887C277.59 131.629 276.688 131.19 276.098 130.57C275.515 129.944 275.224 129.131 275.224 128.131C275.224 126.983 275.709 126.044 276.678 125.314C277.648 124.577 278.879 124.209 280.37 124.209C281.334 124.209 282.217 124.301 283.021 124.485C283.825 124.669 284.537 124.896 285.157 125.166V127.32H285.028C284.507 126.879 283.819 126.513 282.966 126.225C282.119 125.93 281.251 125.783 280.361 125.783C279.385 125.783 278.599 125.986 278.004 126.391C277.415 126.796 277.12 127.317 277.12 127.956C277.12 128.526 277.268 128.974 277.562 129.3C277.857 129.625 278.375 129.874 279.118 130.045C279.511 130.131 280.069 130.236 280.793 130.358C281.518 130.481 282.131 130.607 282.635 130.736C283.653 131.006 284.421 131.414 284.936 131.96C285.452 132.506 285.709 133.271 285.709 134.252Z" fill="white" stroke="white" stroke-width="0.471343"/>
<path d="M298.957 132.66C298.957 133.654 298.846 134.522 298.625 135.265C298.41 136.002 298.055 136.615 297.557 137.106C297.085 137.573 296.532 137.913 295.9 138.128C295.268 138.343 294.532 138.45 293.691 138.45C292.832 138.45 292.083 138.337 291.445 138.11C290.806 137.883 290.269 137.548 289.834 137.106C289.337 136.603 288.977 135.995 288.757 135.284C288.542 134.572 288.434 133.697 288.434 132.66V124.457H290.257V132.752C290.257 133.495 290.306 134.081 290.404 134.51C290.509 134.94 290.681 135.33 290.92 135.679C291.19 136.078 291.555 136.379 292.015 136.582C292.482 136.784 293.04 136.885 293.691 136.885C294.348 136.885 294.906 136.787 295.366 136.591C295.827 136.388 296.195 136.084 296.471 135.679C296.71 135.33 296.879 134.931 296.977 134.483C297.082 134.028 297.134 133.467 297.134 132.798V124.457H298.957L298.957 132.66Z" fill="white" stroke="white" stroke-width="0.471343"/>
<path d="M313.023 137.171C312.686 137.318 312.379 137.456 312.103 137.585C311.833 137.714 311.477 137.849 311.035 137.99C310.661 138.107 310.252 138.205 309.811 138.285C309.375 138.371 308.893 138.414 308.365 138.414C307.371 138.414 306.466 138.275 305.649 137.999C304.839 137.717 304.134 137.278 303.532 136.683C302.943 136.1 302.483 135.36 302.151 134.464C301.82 133.562 301.654 132.516 301.654 131.325C301.654 130.196 301.814 129.186 302.133 128.296C302.452 127.406 302.912 126.655 303.514 126.041C304.097 125.445 304.799 124.991 305.622 124.678C306.45 124.365 307.368 124.209 308.374 124.209C309.111 124.209 309.844 124.298 310.575 124.476C311.311 124.654 312.127 124.967 313.023 125.415V127.578H312.885C312.13 126.946 311.382 126.486 310.639 126.197C309.896 125.909 309.102 125.765 308.255 125.765C307.561 125.765 306.935 125.878 306.377 126.105C305.824 126.326 305.33 126.673 304.895 127.145C304.471 127.606 304.14 128.189 303.9 128.895C303.667 129.594 303.55 130.404 303.55 131.325C303.55 132.289 303.679 133.117 303.937 133.811C304.201 134.504 304.539 135.069 304.95 135.504C305.379 135.959 305.88 136.296 306.45 136.517C307.027 136.732 307.635 136.839 308.273 136.839C309.151 136.839 309.973 136.689 310.74 136.388C311.507 136.088 312.226 135.636 312.895 135.035H313.023V137.171Z" fill="white" stroke="white" stroke-width="0.471343"/>
<path d="M326.188 137.171C325.85 137.318 325.544 137.456 325.267 137.585C324.997 137.714 324.641 137.849 324.199 137.99C323.825 138.107 323.417 138.205 322.975 138.285C322.539 138.371 322.058 138.414 321.53 138.414C320.535 138.414 319.63 138.275 318.814 137.999C318.004 137.717 317.298 137.278 316.697 136.683C316.107 136.1 315.647 135.36 315.316 134.464C314.984 133.562 314.819 132.516 314.819 131.325C314.819 130.196 314.978 129.186 315.297 128.296C315.616 127.406 316.077 126.655 316.678 126.041C317.261 125.445 317.964 124.991 318.786 124.678C319.615 124.365 320.532 124.209 321.539 124.209C322.275 124.209 323.009 124.298 323.739 124.476C324.476 124.654 325.292 124.967 326.188 125.415V127.578H326.05C325.295 126.946 324.546 126.486 323.804 126.197C323.061 125.909 322.266 125.765 321.419 125.765C320.726 125.765 320.1 125.878 319.541 126.105C318.989 126.326 318.495 126.673 318.059 127.145C317.636 127.606 317.304 128.189 317.065 128.895C316.832 129.594 316.715 130.404 316.715 131.325C316.715 132.289 316.844 133.117 317.102 133.811C317.366 134.504 317.703 135.069 318.114 135.504C318.544 135.959 319.044 136.296 319.615 136.517C320.192 136.732 320.799 136.839 321.438 136.839C322.315 136.839 323.138 136.689 323.905 136.388C324.672 136.088 325.39 135.636 326.059 135.035H326.188V137.171Z" fill="white" stroke="white" stroke-width="0.471343"/>
<path d="M337.797 138.165H328.766V124.457H337.797V126.078H330.588V129.834H337.797V131.454H330.588V136.545H337.797V138.165Z" fill="white" stroke="white" stroke-width="0.471343"/>
<path d="M350.648 134.252C350.648 134.786 350.522 135.314 350.271 135.836C350.025 136.358 349.678 136.799 349.23 137.162C348.739 137.554 348.166 137.861 347.509 138.082C346.858 138.303 346.073 138.414 345.152 138.414C344.164 138.414 343.274 138.322 342.482 138.137C341.697 137.953 340.896 137.68 340.08 137.318V135.035H340.209C340.902 135.612 341.703 136.057 342.611 136.37C343.52 136.683 344.373 136.839 345.171 136.839C346.3 136.839 347.177 136.628 347.803 136.204C348.436 135.781 348.752 135.216 348.752 134.51C348.752 133.903 348.601 133.455 348.301 133.166C348.006 132.878 347.555 132.654 346.947 132.494C346.487 132.371 345.987 132.27 345.447 132.19C344.913 132.111 344.345 132.009 343.744 131.887C342.528 131.629 341.626 131.19 341.037 130.57C340.454 129.944 340.163 129.131 340.163 128.131C340.163 126.983 340.647 126.044 341.617 125.314C342.587 124.577 343.817 124.209 345.309 124.209C346.272 124.209 347.156 124.301 347.96 124.485C348.764 124.669 349.476 124.896 350.096 125.166V127.32H349.967C349.445 126.879 348.758 126.513 347.905 126.225C347.058 125.93 346.189 125.783 345.299 125.783C344.324 125.783 343.538 125.986 342.943 126.391C342.354 126.796 342.059 127.317 342.059 127.956C342.059 128.526 342.206 128.974 342.501 129.3C342.795 129.625 343.314 129.874 344.057 130.045C344.449 130.131 345.008 130.236 345.732 130.358C346.456 130.481 347.07 130.607 347.573 130.736C348.592 131.006 349.359 131.414 349.875 131.96C350.39 132.506 350.648 133.271 350.648 134.252Z" fill="white" stroke="white" stroke-width="0.471343"/>
<path d="M363.334 134.252C363.334 134.786 363.208 135.314 362.956 135.836C362.711 136.358 362.364 136.799 361.916 137.162C361.425 137.554 360.851 137.861 360.195 138.082C359.544 138.303 358.759 138.414 357.838 138.414C356.85 138.414 355.96 138.322 355.168 138.137C354.383 137.953 353.582 137.68 352.766 137.318V135.035H352.894C353.588 135.612 354.389 136.057 355.297 136.37C356.205 136.683 357.059 136.839 357.856 136.839C358.986 136.839 359.863 136.628 360.489 136.204C361.121 135.781 361.437 135.216 361.437 134.51C361.437 133.903 361.287 133.455 360.986 133.166C360.692 132.878 360.241 132.654 359.633 132.494C359.173 132.371 358.673 132.27 358.133 132.19C357.599 132.111 357.031 132.009 356.429 131.887C355.214 131.629 354.312 131.19 353.723 130.57C353.14 129.944 352.848 129.131 352.848 128.131C352.848 126.983 353.333 126.044 354.303 125.314C355.273 124.577 356.503 124.209 357.994 124.209C358.958 124.209 359.842 124.301 360.646 124.485C361.45 124.669 362.162 124.896 362.782 125.166V127.32H362.653C362.131 126.879 361.444 126.513 360.591 126.225C359.744 125.93 358.875 125.783 357.985 125.783C357.009 125.783 356.224 125.986 355.629 126.391C355.039 126.796 354.745 127.317 354.745 127.956C354.745 128.526 354.892 128.974 355.187 129.3C355.481 129.625 356 129.874 356.742 130.045C357.135 130.131 357.694 130.236 358.418 130.358C359.142 130.481 359.756 130.607 360.259 130.736C361.278 131.006 362.045 131.414 362.561 131.96C363.076 132.506 363.334 133.271 363.334 134.252Z" fill="white" stroke="white" stroke-width="0.471343"/>
<path d="M376.434 130.506H374.234V127.882H376.434V130.506ZM376.434 138.165H374.234V135.541H376.434V138.165Z" fill="white" stroke="white" stroke-width="0.471343"/>
<path d="M398.04 134.252C398.04 134.786 397.914 135.314 397.663 135.836C397.417 136.358 397.071 136.799 396.623 137.162C396.132 137.554 395.558 137.861 394.901 138.082C394.25 138.303 393.465 138.414 392.544 138.414C391.556 138.414 390.666 138.322 389.875 138.137C389.089 137.953 388.288 137.68 387.472 137.318V135.035H387.601C388.294 135.612 389.095 136.057 390.003 136.37C390.912 136.683 391.765 136.839 392.563 136.839C393.692 136.839 394.57 136.628 395.196 136.204C395.828 135.781 396.144 135.216 396.144 134.51C396.144 133.903 395.993 133.455 395.693 133.166C395.398 132.878 394.947 132.654 394.339 132.494C393.879 132.371 393.379 132.27 392.839 132.19C392.305 132.111 391.737 132.009 391.136 131.887C389.921 131.629 389.018 131.19 388.429 130.57C387.846 129.944 387.555 129.131 387.555 128.131C387.555 126.983 388.04 126.044 389.009 125.314C389.979 124.577 391.209 124.209 392.701 124.209C393.664 124.209 394.548 124.301 395.352 124.485C396.156 124.669 396.868 124.896 397.488 125.166V127.32H397.359C396.837 126.879 396.15 126.513 395.297 126.225C394.45 125.93 393.582 125.783 392.692 125.783C391.716 125.783 390.93 125.986 390.335 126.391C389.746 126.796 389.451 127.317 389.451 127.956C389.451 128.526 389.598 128.974 389.893 129.3C390.188 129.625 390.706 129.874 391.449 130.045C391.842 130.131 392.4 130.236 393.124 130.358C393.849 130.481 394.462 130.607 394.965 130.736C395.984 131.006 396.751 131.414 397.267 131.96C397.783 132.506 398.04 133.271 398.04 134.252Z" fill="white" stroke="white" stroke-width="0.471343"/>
<path d="M411.288 132.66C411.288 133.654 411.177 134.522 410.956 135.265C410.741 136.002 410.385 136.615 409.888 137.106C409.416 137.573 408.863 137.913 408.231 138.128C407.599 138.343 406.863 138.45 406.022 138.45C405.163 138.45 404.414 138.337 403.776 138.11C403.137 137.883 402.6 137.548 402.165 137.106C401.667 136.603 401.308 135.995 401.087 135.284C400.873 134.572 400.765 133.697 400.765 132.66V124.457H402.588V132.752C402.588 133.495 402.637 134.081 402.735 134.51C402.84 134.94 403.012 135.33 403.251 135.679C403.521 136.078 403.886 136.379 404.346 136.582C404.813 136.784 405.371 136.885 406.022 136.885C406.679 136.885 407.237 136.787 407.697 136.591C408.158 136.388 408.526 136.084 408.802 135.679C409.041 135.33 409.21 134.931 409.308 134.483C409.413 134.028 409.465 133.467 409.465 132.798V124.457H411.288L411.288 132.66Z" fill="white" stroke="white" stroke-width="0.471343"/>
<path d="M425.354 137.171C425.017 137.318 424.71 137.456 424.434 137.585C424.164 137.714 423.808 137.849 423.366 137.99C422.991 138.107 422.583 138.205 422.141 138.285C421.706 138.371 421.224 138.414 420.696 138.414C419.702 138.414 418.797 138.275 417.98 137.999C417.17 137.717 416.464 137.278 415.863 136.683C415.274 136.1 414.814 135.36 414.482 134.464C414.151 133.562 413.985 132.516 413.985 131.325C413.985 130.196 414.145 129.186 414.464 128.296C414.783 127.406 415.243 126.655 415.845 126.041C416.428 125.445 417.13 124.991 417.953 124.678C418.781 124.365 419.699 124.209 420.705 124.209C421.442 124.209 422.175 124.298 422.906 124.476C423.642 124.654 424.458 124.967 425.354 125.415V127.578H425.216C424.461 126.946 423.713 126.486 422.97 126.197C422.228 125.909 421.433 125.765 420.586 125.765C419.892 125.765 419.266 125.878 418.708 126.105C418.155 126.326 417.661 126.673 417.226 127.145C416.802 127.606 416.471 128.189 416.231 128.895C415.998 129.594 415.882 130.404 415.882 131.325C415.882 132.289 416.01 133.117 416.268 133.811C416.532 134.504 416.87 135.069 417.281 135.504C417.71 135.959 418.211 136.296 418.781 136.517C419.358 136.732 419.966 136.839 420.604 136.839C421.482 136.839 422.304 136.689 423.071 136.388C423.839 136.088 424.557 135.636 425.226 135.035H425.354L425.354 137.171Z" fill="white" stroke="white" stroke-width="0.471343"/>
<path d="M438.519 137.171C438.181 137.318 437.874 137.456 437.598 137.585C437.328 137.714 436.972 137.849 436.53 137.99C436.156 138.107 435.748 138.205 435.306 138.285C434.87 138.371 434.388 138.414 433.861 138.414C432.866 138.414 431.961 138.275 431.145 137.999C430.335 137.717 429.629 137.278 429.028 136.683C428.438 136.1 427.978 135.36 427.647 134.464C427.315 133.562 427.15 132.516 427.15 131.325C427.15 130.196 427.309 129.186 427.628 128.296C427.947 127.406 428.408 126.655 429.009 126.041C429.592 125.445 430.295 124.991 431.117 124.678C431.946 124.365 432.863 124.209 433.87 124.209C434.606 124.209 435.34 124.298 436.07 124.476C436.807 124.654 437.623 124.967 438.519 125.415V127.578H438.381C437.626 126.946 436.877 126.486 436.135 126.197C435.392 125.909 434.597 125.765 433.75 125.765C433.057 125.765 432.431 125.878 431.872 126.105C431.32 126.326 430.826 126.673 430.39 127.145C429.967 127.606 429.635 128.189 429.396 128.895C429.163 129.594 429.046 130.404 429.046 131.325C429.046 132.289 429.175 133.117 429.433 133.811C429.697 134.504 430.034 135.069 430.445 135.504C430.875 135.959 431.375 136.296 431.946 136.517C432.523 136.732 433.13 136.839 433.769 136.839C434.646 136.839 435.469 136.689 436.236 136.388C437.003 136.088 437.721 135.636 438.39 135.035H438.519L438.519 137.171Z" fill="white" stroke="white" stroke-width="0.471343"/>
<path d="M450.127 138.165H441.096V124.457H450.127V126.078H442.919V129.834H450.127V131.454H442.919V136.545H450.127V138.165Z" fill="white" stroke="white" stroke-width="0.471343"/>
<path d="M462.979 134.252C462.979 134.786 462.853 135.314 462.602 135.836C462.356 136.358 462.009 136.799 461.561 137.162C461.07 137.554 460.496 137.861 459.84 138.082C459.189 138.303 458.404 138.414 457.483 138.414C456.495 138.414 455.605 138.322 454.813 138.137C454.028 137.953 453.227 137.68 452.411 137.318V135.035H452.539C453.233 135.612 454.034 136.057 454.942 136.37C455.85 136.683 456.704 136.839 457.501 136.839C458.631 136.839 459.508 136.628 460.134 136.204C460.766 135.781 461.082 135.216 461.082 134.51C461.082 133.903 460.932 133.455 460.631 133.166C460.337 132.878 459.886 132.654 459.278 132.494C458.818 132.371 458.318 132.27 457.778 132.19C457.244 132.111 456.676 132.009 456.074 131.887C454.859 131.629 453.957 131.19 453.368 130.57C452.785 129.944 452.493 129.131 452.493 128.131C452.493 126.983 452.978 126.044 453.948 125.314C454.918 124.577 456.148 124.209 457.639 124.209C458.603 124.209 459.487 124.301 460.291 124.485C461.095 124.669 461.807 124.896 462.427 125.166V127.32H462.298C461.776 126.879 461.089 126.513 460.236 126.225C459.389 125.93 458.52 125.783 457.63 125.783C456.654 125.783 455.869 125.986 455.274 126.391C454.684 126.796 454.39 127.317 454.39 127.956C454.39 128.526 454.537 128.974 454.832 129.3C455.126 129.625 455.645 129.874 456.388 130.045C456.78 130.131 457.339 130.236 458.063 130.358C458.787 130.481 459.401 130.607 459.904 130.736C460.923 131.006 461.69 131.414 462.206 131.96C462.721 132.506 462.979 133.271 462.979 134.252Z" fill="white" stroke="white" stroke-width="0.471343"/>
<path d="M475.665 134.252C475.665 134.786 475.539 135.314 475.287 135.836C475.042 136.358 474.695 136.799 474.247 137.162C473.756 137.554 473.182 137.861 472.526 138.082C471.875 138.303 471.089 138.414 470.169 138.414C469.181 138.414 468.291 138.322 467.499 138.137C466.713 137.953 465.913 137.68 465.096 137.318V135.035H465.225C465.919 135.612 466.72 136.057 467.628 136.37C468.536 136.683 469.389 136.839 470.187 136.839C471.316 136.839 472.194 136.628 472.82 136.204C473.452 135.781 473.768 135.216 473.768 134.51C473.768 133.903 473.618 133.455 473.317 133.166C473.023 132.878 472.572 132.654 471.964 132.494C471.504 132.371 471.003 132.27 470.463 132.19C469.929 132.111 469.362 132.009 468.76 131.887C467.545 131.629 466.643 131.19 466.054 130.57C465.471 129.944 465.179 129.131 465.179 128.131C465.179 126.983 465.664 126.044 466.634 125.314C467.603 124.577 468.834 124.209 470.325 124.209C471.289 124.209 472.173 124.301 472.977 124.485C473.781 124.669 474.492 124.896 475.112 125.166V127.32H474.983C474.462 126.879 473.774 126.513 472.921 126.225C472.074 125.93 471.206 125.783 470.316 125.783C469.34 125.783 468.555 125.986 467.959 126.391C467.37 126.796 467.076 127.317 467.076 127.956C467.076 128.526 467.223 128.974 467.518 129.3C467.812 129.625 468.331 129.874 469.073 130.045C469.466 130.131 470.025 130.236 470.749 130.358C471.473 130.481 472.087 130.607 472.59 130.736C473.609 131.006 474.376 131.414 474.891 131.96C475.407 132.506 475.665 133.271 475.665 134.252Z" fill="white" stroke="white" stroke-width="0.471343"/>
<path d="M495.181 134.252C495.181 134.786 495.056 135.314 494.804 135.836C494.558 136.358 494.212 136.799 493.764 137.162C493.273 137.554 492.699 137.861 492.042 138.082C491.392 138.303 490.606 138.414 489.685 138.414C488.697 138.414 487.807 138.322 487.016 138.137C486.23 137.953 485.429 137.68 484.613 137.318V135.035H484.742C485.435 135.612 486.236 136.057 487.144 136.37C488.053 136.683 488.906 136.839 489.704 136.839C490.833 136.839 491.711 136.628 492.337 136.204C492.969 135.781 493.285 135.216 493.285 134.51C493.285 133.903 493.134 133.455 492.834 133.166C492.539 132.878 492.088 132.654 491.48 132.494C491.02 132.371 490.52 132.27 489.98 132.19C489.446 132.111 488.878 132.009 488.277 131.887C487.062 131.629 486.159 131.19 485.57 130.57C484.987 129.944 484.696 129.131 484.696 128.131C484.696 126.983 485.181 126.044 486.15 125.314C487.12 124.577 488.35 124.209 489.842 124.209C490.805 124.209 491.689 124.301 492.493 124.485C493.297 124.669 494.009 124.896 494.629 125.166V127.32H494.5C493.978 126.879 493.291 126.513 492.438 126.225C491.591 125.93 490.723 125.783 489.833 125.783C488.857 125.783 488.071 125.986 487.476 126.391C486.887 126.796 486.592 127.317 486.592 127.956C486.592 128.526 486.739 128.974 487.034 129.3C487.329 129.625 487.847 129.874 488.59 130.045C488.983 130.131 489.541 130.236 490.265 130.358C490.99 130.481 491.603 130.607 492.107 130.736C493.125 131.006 493.892 131.414 494.408 131.96C494.924 132.506 495.181 133.271 495.181 134.252Z" fill="white" stroke="white" stroke-width="0.471343"/>
<path d="M507.886 126.078H502.988V138.165H501.165V126.078H496.268V124.457H507.886V126.078Z" fill="white" stroke="white" stroke-width="0.471343"/>
<path d="M519.43 138.165H517.487L516.143 134.345H510.215L508.871 138.165H507.02L512.01 124.457H514.44L519.43 138.165ZM515.582 132.78L513.179 126.05L510.767 132.78H515.582Z" fill="white" stroke="white" stroke-width="0.471343"/>
<path d="M532.852 138.165H530.486L525.902 132.715H523.333V138.165H521.51V124.457H525.349C526.178 124.457 526.868 124.513 527.421 124.623C527.973 124.727 528.47 124.918 528.912 125.194C529.409 125.507 529.796 125.903 530.072 126.381C530.354 126.854 530.495 127.455 530.495 128.186C530.495 129.174 530.247 130.002 529.75 130.671C529.253 131.334 528.568 131.834 527.697 132.172L532.852 138.165ZM528.59 128.315C528.59 127.922 528.519 127.575 528.378 127.274C528.243 126.967 528.016 126.71 527.697 126.501C527.433 126.323 527.12 126.2 526.758 126.133C526.396 126.059 525.969 126.022 525.478 126.022H523.333V131.196H525.174C525.751 131.196 526.255 131.147 526.684 131.049C527.114 130.944 527.479 130.754 527.78 130.478C528.056 130.22 528.258 129.926 528.387 129.594C528.522 129.257 528.59 128.83 528.59 128.315Z" fill="white" stroke="white" stroke-width="0.471343"/>
<path d="M543.844 126.078H538.946V138.165H537.124V126.078H532.226V124.457H543.844V126.078Z" fill="white" stroke="white" stroke-width="0.471343"/>
<path d="M555.535 134.252C555.535 134.786 555.41 135.314 555.158 135.836C554.912 136.358 554.566 136.799 554.118 137.162C553.627 137.554 553.053 137.861 552.396 138.082C551.746 138.303 550.96 138.414 550.039 138.414C549.051 138.414 548.161 138.322 547.37 138.137C546.584 137.953 545.783 137.68 544.967 137.318V135.035H545.096C545.789 135.612 546.59 136.057 547.499 136.37C548.407 136.683 549.26 136.839 550.058 136.839C551.187 136.839 552.065 136.628 552.691 136.204C553.323 135.781 553.639 135.216 553.639 134.51C553.639 133.903 553.489 133.455 553.188 133.166C552.893 132.878 552.442 132.654 551.835 132.494C551.374 132.371 550.874 132.27 550.334 132.19C549.8 132.111 549.232 132.009 548.631 131.887C547.416 131.629 546.514 131.19 545.924 130.57C545.341 129.944 545.05 129.131 545.05 128.131C545.05 126.983 545.535 126.044 546.504 125.314C547.474 124.577 548.705 124.209 550.196 124.209C551.159 124.209 552.043 124.301 552.847 124.485C553.651 124.669 554.363 124.896 554.983 125.166V127.32H554.854C554.333 126.879 553.645 126.513 552.792 126.225C551.945 125.93 551.077 125.783 550.187 125.783C549.211 125.783 548.425 125.986 547.83 126.391C547.241 126.796 546.946 127.317 546.946 127.956C546.946 128.526 547.094 128.974 547.388 129.3C547.683 129.625 548.201 129.874 548.944 130.045C549.337 130.131 549.895 130.236 550.619 130.358C551.344 130.481 551.957 130.607 552.461 130.736C553.479 131.006 554.247 131.414 554.762 131.96C555.278 132.506 555.535 133.271 555.535 134.252Z" fill="white" stroke="white" stroke-width="0.471343"/>
<path d="M581.045 124.457L577.482 138.165H575.429L572.548 126.786L569.731 138.165H567.724L564.097 124.457H565.966L568.847 135.854L571.683 124.457H573.533L576.396 135.965L579.259 124.457H581.045Z" fill="white" stroke="white" stroke-width="0.471343"/>
<path d="M588.566 138.165H583.153V136.766H584.948V125.857H583.153V124.457H588.566V125.857H586.771V136.766H588.566V138.165Z" fill="white" stroke="white" stroke-width="0.471343"/>
<path d="M601.446 126.078H596.548V138.165H594.725V126.078H589.828V124.457H601.446V126.078Z" fill="white" stroke="white" stroke-width="0.471343"/>
<path d="M613.772 138.165H611.949V131.454H605.109V138.165H603.287V124.457H605.109V129.834H611.949V124.457H613.772V138.165Z" fill="white" stroke="white" stroke-width="0.471343"/>
<path d="M634.67 137.171C634.332 137.318 634.025 137.456 633.749 137.585C633.479 137.714 633.123 137.849 632.681 137.99C632.307 138.107 631.899 138.205 631.457 138.285C631.021 138.371 630.539 138.414 630.012 138.414C629.017 138.414 628.112 138.275 627.296 137.999C626.486 137.717 625.78 137.278 625.179 136.683C624.589 136.1 624.129 135.36 623.798 134.464C623.466 133.562 623.301 132.516 623.301 131.325C623.301 130.196 623.46 129.186 623.779 128.296C624.098 127.406 624.559 126.655 625.16 126.041C625.743 125.445 626.446 124.991 627.268 124.678C628.097 124.365 629.014 124.209 630.021 124.209C630.757 124.209 631.491 124.298 632.221 124.476C632.958 124.654 633.774 124.967 634.67 125.415V127.578H634.532C633.777 126.946 633.028 126.486 632.286 126.197C631.543 125.909 630.748 125.765 629.901 125.765C629.208 125.765 628.582 125.878 628.023 126.105C627.471 126.326 626.977 126.673 626.541 127.145C626.118 127.606 625.786 128.189 625.547 128.895C625.314 129.594 625.197 130.404 625.197 131.325C625.197 132.289 625.326 133.117 625.584 133.811C625.848 134.504 626.185 135.069 626.596 135.504C627.026 135.959 627.526 136.296 628.097 136.517C628.674 136.732 629.281 136.839 629.92 136.839C630.797 136.839 631.62 136.689 632.387 136.388C633.154 136.088 633.872 135.636 634.541 135.035H634.67L634.67 137.171Z" fill="white" stroke="white" stroke-width="0.471343"/>
<path d="M645.92 138.165H637.248V124.457H639.07V136.545H645.92V138.165Z" fill="white" stroke="white" stroke-width="0.471343"/>
<path d="M652.575 138.165H647.162V136.766H648.957V125.857H647.162V124.457H652.575V125.857H650.78V136.766H652.575V138.165Z" fill="white" stroke="white" stroke-width="0.471343"/>
<path d="M666.265 137.171C665.927 137.318 665.62 137.456 665.344 137.585C665.074 137.714 664.718 137.849 664.276 137.99C663.902 138.107 663.494 138.205 663.052 138.285C662.616 138.371 662.134 138.414 661.606 138.414C660.612 138.414 659.707 138.275 658.891 137.999C658.081 137.717 657.375 137.278 656.773 136.683C656.184 136.1 655.724 135.36 655.392 134.464C655.061 133.562 654.895 132.516 654.895 131.325C654.895 130.196 655.055 129.186 655.374 128.296C655.693 127.406 656.153 126.655 656.755 126.041C657.338 125.445 658.041 124.991 658.863 124.678C659.692 124.365 660.609 124.209 661.616 124.209C662.352 124.209 663.086 124.298 663.816 124.476C664.552 124.654 665.369 124.967 666.265 125.415V127.578H666.127C665.372 126.946 664.623 126.486 663.88 126.197C663.138 125.909 662.343 125.765 661.496 125.765C660.803 125.765 660.177 125.878 659.618 126.105C659.066 126.326 658.572 126.673 658.136 127.145C657.712 127.606 657.381 128.189 657.142 128.895C656.908 129.594 656.792 130.404 656.792 131.325C656.792 132.289 656.921 133.117 657.178 133.811C657.442 134.504 657.78 135.069 658.191 135.504C658.621 135.959 659.121 136.296 659.692 136.517C660.269 136.732 660.876 136.839 661.514 136.839C662.392 136.839 663.214 136.689 663.982 136.388C664.749 136.088 665.467 135.636 666.136 135.035H666.265L666.265 137.171Z" fill="white" stroke="white" stroke-width="0.471343"/>
<path d="M679.862 138.165H677.496L672.073 132.061L670.711 133.516V138.165H668.888V124.457H670.711V131.61L677.367 124.457H679.576L673.454 130.901L679.862 138.165Z" fill="white" stroke="white" stroke-width="0.471343"/>
<g opacity="0.5" filter="url(#filter0_f_3_702)">
<path d="M222.839 69.3209H218.297L212.845 65.7702H198.981L198.147 69.3209H193.819L197.206 56.5812H202.889L222.839 69.3209ZM210.587 64.3157L200.902 58.0613L199.328 64.3157H210.587Z" fill="black"/>
</g>
<g opacity="0.5" filter="url(#filter1_f_3_702)">
<path d="M288.224 69.864H267.945L259.663 57.1244H263.926L271.229 68.3582H287.245L288.224 69.864Z" fill="black"/>
</g>
<g opacity="0.5" filter="url(#filter2_f_3_702)">
<path d="M356.613 58.2771C358.29 58.8475 359.741 59.5463 360.968 60.3733C362.209 61.2004 363.17 62.1387 363.852 63.1882C364.535 64.2377 364.788 65.1788 364.611 66.0116C364.446 66.8387 363.904 67.5288 362.987 68.0821C362.041 68.6582 360.758 69.0918 359.139 69.3827C357.534 69.6736 355.576 69.819 353.266 69.819C351.012 69.819 348.864 69.6707 346.819 69.3741C344.789 69.0775 342.945 68.6468 341.286 68.0821C339.628 67.5174 338.18 66.8245 336.942 66.0031C335.72 65.1818 334.765 64.2434 334.079 63.1882C333.404 62.1501 333.144 61.2203 333.299 60.399C333.451 59.5719 333.995 58.8646 334.934 58.2771C335.834 57.7182 337.12 57.2903 338.793 56.9937C340.48 56.6971 342.429 56.5488 344.639 56.5488C346.935 56.5488 349.093 56.7 351.112 57.0023C353.142 57.2989 354.976 57.7238 356.613 58.2771ZM359.418 63.1882C358.342 61.5341 356.581 60.2593 354.133 59.3637C351.681 58.4625 348.841 58.0119 345.612 58.0119C342.354 58.0119 340.085 58.4625 338.805 59.3637C337.536 60.2593 337.439 61.5341 338.514 63.1882C339.6 64.8594 341.38 66.14 343.853 67.0298C346.322 67.9139 349.15 68.3559 352.336 68.3559C355.522 68.3559 357.768 67.9139 359.073 67.0298C360.389 66.14 360.504 64.8594 359.418 63.1882Z" fill="black"/>
</g>
<g opacity="0.5" filter="url(#filter3_f_3_702)">
<path d="M441.102 65.9576C441.425 66.4538 441.45 66.9443 441.176 67.4292C440.918 67.914 440.374 68.3247 439.545 68.6612C438.634 69.0263 437.477 69.3114 436.075 69.5167C434.687 69.7221 432.917 69.8247 430.764 69.8247C428.453 69.8247 426.317 69.7392 424.354 69.5681C422.406 69.397 420.368 69.1432 418.24 68.8067L416.861 66.6848H417.162C419.133 67.2209 421.274 67.6345 423.588 67.9254C425.901 68.2163 427.99 68.3617 429.856 68.3617C432.497 68.3617 434.421 68.1649 435.629 67.7714C436.852 67.3778 437.25 66.8531 436.823 66.1971C436.456 65.6325 435.834 65.216 434.956 64.948C434.093 64.6799 432.903 64.4717 431.386 64.3234C430.235 64.2093 429.004 64.1152 427.693 64.0411C426.396 63.9669 425.008 63.8727 423.527 63.7587C420.53 63.5191 418.155 63.1113 416.402 62.5352C414.661 61.9534 413.488 61.1977 412.883 60.2679C412.19 59.2013 412.756 58.3286 414.583 57.6498C416.405 56.9654 419.061 56.6231 422.548 56.6231C424.801 56.6231 426.924 56.7086 428.915 56.8797C430.906 57.0509 432.708 57.2619 434.321 57.5129L435.623 59.515H435.321C433.834 59.1043 432.006 58.7649 429.837 58.4969C427.679 58.2231 425.559 58.0862 423.478 58.0862C421.196 58.0862 419.481 58.2744 418.334 58.6509C417.201 59.0273 416.827 59.5122 417.212 60.1054C417.557 60.6358 418.172 61.0522 419.058 61.3545C419.943 61.6568 421.306 61.8878 423.147 62.0475C424.117 62.1273 425.486 62.2243 427.254 62.3384C429.021 62.4525 430.533 62.5694 431.787 62.6892C434.333 62.9402 436.374 63.3195 437.909 63.8271C439.445 64.3348 440.509 65.0449 441.102 65.9576Z" fill="black"/>
</g>
<g opacity="0.5" filter="url(#filter4_f_3_702)">
<path d="M513.543 58.6302H502.09L509.393 69.864H505.131L497.828 58.6302H486.375L485.396 57.1244H512.564L513.543 58.6302Z" fill="black"/>
</g>
<g opacity="0.5" filter="url(#filter5_f_3_702)">
<path d="M600.478 69.864H595.935L590.484 66.3134H576.62L575.785 69.864H571.458L574.844 57.1244H580.528L600.478 69.864ZM588.225 64.8588L578.541 58.6045L576.966 64.8588H588.225Z" fill="black"/>
</g>
<g opacity="0.5" filter="url(#filter6_f_3_702)">
<path d="M675.817 67.0419H650.802L649.778 65.4677L663.154 55.8081H644.231L643.252 54.3023H667.062L668.058 55.8338L654.516 65.5361H674.838L675.817 67.0419Z" fill="black"/>
</g>
<path d="M222.834 69.3208H218.297L215.157 60.3967H201.309L198.169 69.3208H193.847L205.502 37.3017H211.179L222.834 69.3208ZM213.846 56.7411L208.233 41.0218L202.599 56.7411H213.846Z" fill="white"/>
<path d="M292.457 69.3208H272.201V37.3017H276.458V65.5361H292.457V69.3208Z" fill="white"/>
<path d="M367.52 40.3122C368.825 41.7458 369.821 43.5019 370.509 45.5806C371.212 47.6593 371.563 50.0175 371.563 52.6553C371.563 55.2931 371.205 57.6585 370.488 59.7515C369.785 61.8303 368.796 63.5649 367.52 64.9554C366.201 66.4034 364.639 67.4929 362.833 68.224C361.041 68.9552 358.99 69.3208 356.682 69.3208C354.432 69.3208 352.382 68.9481 350.532 68.2026C348.697 67.4571 347.135 66.3747 345.845 64.9554C344.554 63.5362 343.558 61.7944 342.856 59.7301C342.167 57.6657 341.823 55.3075 341.823 52.6553C341.823 50.0462 342.167 47.7094 342.856 45.645C343.544 43.5663 344.547 41.7887 345.866 40.3121C347.128 38.9072 348.69 37.832 350.554 37.0865C352.432 36.3411 354.475 35.9684 356.682 35.9684C358.976 35.9684 361.033 36.3483 362.854 37.1081C364.689 37.8535 366.244 38.9216 367.52 40.3122ZM367.133 52.6553C367.133 48.498 366.201 45.2939 364.338 43.0432C362.474 40.7781 359.929 39.6456 356.704 39.6456C353.45 39.6456 350.891 40.7781 349.027 43.0432C347.178 45.2939 346.253 48.498 346.253 52.6553C346.253 56.8557 347.199 60.0742 349.092 62.3105C350.984 64.5326 353.521 65.6436 356.704 65.6436C359.886 65.6436 362.417 64.5326 364.295 62.3105C366.187 60.0742 367.133 56.8557 367.133 52.6553Z" fill="white"/>
<path d="M445.616 59.6013C445.616 60.8485 445.322 62.0814 444.734 63.2999C444.161 64.5185 443.351 65.5506 442.304 66.3965C441.157 67.314 439.817 68.0307 438.283 68.5468C436.763 69.0629 434.928 69.3209 432.778 69.3209C430.47 69.3209 428.391 69.1059 426.542 68.6758C424.707 68.2458 422.836 67.6078 420.929 66.762V61.429H421.231C422.85 62.7766 424.721 63.816 426.843 64.5471C428.965 65.2782 430.957 65.6438 432.821 65.6438C435.459 65.6438 437.509 65.1492 438.971 64.16C440.448 63.1709 441.186 61.852 441.186 60.2033C441.186 58.7841 440.835 57.7376 440.132 57.0638C439.444 56.39 438.391 55.8668 436.971 55.4941C435.896 55.2073 434.728 54.9708 433.466 54.7844C432.219 54.598 430.893 54.3614 429.488 54.0748C426.649 53.4727 424.542 52.4476 423.166 50.9997C421.804 49.5374 421.123 47.638 421.123 45.3012C421.123 42.6204 422.256 40.4271 424.521 38.7211C426.786 37.0008 429.66 36.1407 433.144 36.1407C435.394 36.1407 437.459 36.3557 439.337 36.7857C441.215 37.2158 442.878 37.7463 444.325 38.377V43.4089H444.024C442.806 42.3767 441.2 41.5238 439.208 40.85C437.229 40.1618 435.201 39.8178 433.122 39.8178C430.843 39.8178 429.008 40.2909 427.617 41.2371C426.241 42.1832 425.553 43.4017 425.553 44.8927C425.553 46.2259 425.897 47.2725 426.585 48.0322C427.273 48.792 428.484 49.3726 430.219 49.774C431.136 49.9746 432.441 50.2183 434.133 50.5051C435.824 50.7918 437.258 51.0857 438.433 51.3868C440.813 52.0176 442.605 52.9709 443.809 54.2468C445.014 55.5227 445.616 57.3076 445.616 59.6013Z" fill="white"/>
<path d="M522.12 41.0863H510.68V69.3208H506.422V41.0863H494.982V37.3017H522.12V41.0863Z" fill="white"/>
<path d="M600.473 69.3208H595.936L592.796 60.3968H578.948L575.808 69.3208H571.486L583.141 37.3017H588.818L600.473 69.3208ZM591.484 56.7411L585.872 41.0218L580.238 56.7411H591.484Z" fill="white"/>
<path d="M674.827 69.3208H649.839V65.3641L669.472 41.0863H650.571V37.3017H674.354V41.1508L654.527 65.5361H674.827V69.3208Z" fill="white"/>
<path d="M144.287 0.668945H142.864V106.241H144.287V0.668945Z" fill="white" stroke="black" stroke-width="0.11549"/>
<g opacity="0.498759" filter="url(#filter7_f_3_702)">
<path d="M54.5835 5.92761C42.1609 5.9654 30.2185 10.7308 21.1827 19.2558H21.6861L29.0709 37.6984H25.0205L23.4104 33.5098H16.0376L14.5166 37.6984H10.5658L8.85481 37.7383C6.80457 43.1652 5.71969 48.9448 5.6958 54.8152C5.69602 81.815 27.5836 103.703 54.5835 103.703C65.9326 103.695 76.9255 99.7384 85.6767 92.5122H75.7919V89.1525L85.4788 77.1887H76.8865V74.4694C71.2464 80.8818 63.1234 84.5623 54.5835 84.5748C38.1479 84.5743 24.8243 71.2508 24.8239 54.8152C24.8236 38.3791 38.1474 25.0548 54.5835 25.0543C71.02 25.0541 84.3446 38.3786 84.3443 54.8152C84.3366 61.8715 81.8221 68.6955 77.2492 74.0695H90.3847L99.4765 74.0975C102.075 68.0632 103.466 61.513 103.472 54.8153C103.472 27.815 81.5838 5.9271 54.5835 5.92761Z" fill="black"/>
</g>
<path d="M57.3041 4.56726C44.8814 4.60497 32.9391 9.37041 23.9033 17.8954H24.4067L31.7915 36.338H27.7411L26.131 32.1495H18.7582L17.2371 36.338H13.2864L11.5754 36.3779C9.52518 41.8049 8.44025 47.5845 8.41638 53.4549C8.4166 80.4547 30.3042 102.342 57.3041 102.343C68.6532 102.334 79.646 98.3781 88.3973 91.1518H78.5124V87.7922L88.1993 75.8284H79.6071V73.109C73.967 79.5215 65.844 83.202 57.3041 83.2145C40.8685 83.214 27.5449 69.8905 27.5445 53.4549C27.5442 37.0188 40.868 23.6944 57.3041 23.694C73.7406 23.6937 87.0652 37.0183 87.0649 53.4549C87.0568 60.5112 84.5426 67.3352 79.9697 72.7092H93.1053L102.197 72.7372C104.795 66.7028 106.186 60.1526 106.193 53.455C106.193 26.4547 84.3044 4.56675 57.3041 4.56726Z" fill="white"/>
<path d="M96.4161 7.02379L97.403 6.92784C97.4624 7.25911 97.5824 7.50242 97.7629 7.65778C97.9456 7.81313 98.1912 7.89081 98.4997 7.89081C98.8264 7.89081 99.072 7.82227 99.2364 7.68519C99.4032 7.54583 99.4866 7.38362 99.4866 7.19857C99.4866 7.07977 99.4512 6.97924 99.3804 6.897C99.3118 6.81246 99.1908 6.73936 99.0171 6.67767C98.8983 6.63655 98.6276 6.56344 98.2049 6.45835C97.6612 6.32355 97.2797 6.15792 97.0603 5.96144C96.7519 5.685 96.5977 5.34802 96.5977 4.95049C96.5977 4.69461 96.6697 4.45587 96.8136 4.23426C96.9598 4.01036 97.1689 3.84016 97.4407 3.72364C97.7149 3.60713 98.045 3.54887 98.4311 3.54887C99.0617 3.54887 99.5357 3.68709 99.8533 3.96353C100.173 4.23997 100.341 4.60894 100.357 5.07043L99.3427 5.11498C99.2993 4.85682 99.2056 4.67176 99.0617 4.55982C98.92 4.44559 98.7064 4.38847 98.4208 4.38847C98.1261 4.38847 97.8954 4.44901 97.7286 4.5701C97.6212 4.64778 97.5675 4.75173 97.5675 4.88195C97.5675 5.00075 97.6178 5.10242 97.7183 5.18695C97.8462 5.29433 98.157 5.40627 98.6504 5.52279C99.1439 5.63931 99.5083 5.76039 99.7436 5.88605C99.9812 6.00942 100.166 6.17962 100.299 6.39666C100.434 6.61142 100.501 6.87758 100.501 7.19514C100.501 7.483 100.421 7.75259 100.261 8.0039C100.101 8.25521 99.875 8.44255 99.5826 8.56592C99.2901 8.68701 98.9257 8.74755 98.4894 8.74755C97.8542 8.74755 97.3665 8.60133 97.0261 8.3089C96.6857 8.01418 96.4823 7.58581 96.4161 7.02379ZM101.341 8.65845V3.63454H102.859L103.77 7.06149L104.672 3.63454H106.193V8.65845H105.251V4.70375L104.254 8.65845H103.277L102.283 4.70375V8.65845H101.341Z" fill="white"/>
<defs>
<filter id="filter0_f_3_702" x="192.264" y="55.0258" width="32.1307" height="15.8506" filterUnits="userSpaceOnUse" color-interpolation-filters="sRGB">
<feFlood flood-opacity="0" result="BackgroundImageFix"/>
<feBlend mode="normal" in="SourceGraphic" in2="BackgroundImageFix" result="shape"/>
<feGaussianBlur stdDeviation="0.777737" result="effect1_foregroundBlur_3_702"/>
</filter>
<filter id="filter1_f_3_702" x="258.108" y="55.5689" width="31.672" height="15.8506" filterUnits="userSpaceOnUse" color-interpolation-filters="sRGB">
<feFlood flood-opacity="0" result="BackgroundImageFix"/>
<feBlend mode="normal" in="SourceGraphic" in2="BackgroundImageFix" result="shape"/>
<feGaussianBlur stdDeviation="0.777737" result="effect1_foregroundBlur_3_702"/>
</filter>
<filter id="filter2_f_3_702" x="331.701" y="54.9934" width="34.5207" height="16.3811" filterUnits="userSpaceOnUse" color-interpolation-filters="sRGB">
<feFlood flood-opacity="0" result="BackgroundImageFix"/>
<feBlend mode="normal" in="SourceGraphic" in2="BackgroundImageFix" result="shape"/>
<feGaussianBlur stdDeviation="0.777737" result="effect1_foregroundBlur_3_702"/>
</filter>
<filter id="filter3_f_3_702" x="411.042" y="55.0676" width="31.8782" height="16.3126" filterUnits="userSpaceOnUse" color-interpolation-filters="sRGB">
<feFlood flood-opacity="0" result="BackgroundImageFix"/>
<feBlend mode="normal" in="SourceGraphic" in2="BackgroundImageFix" result="shape"/>
<feGaussianBlur stdDeviation="0.777737" result="effect1_foregroundBlur_3_702"/>
</filter>
<filter id="filter4_f_3_702" x="483.841" y="55.5689" width="31.2582" height="15.8506" filterUnits="userSpaceOnUse" color-interpolation-filters="sRGB">
<feFlood flood-opacity="0" result="BackgroundImageFix"/>
<feBlend mode="normal" in="SourceGraphic" in2="BackgroundImageFix" result="shape"/>
<feGaussianBlur stdDeviation="0.777737" result="effect1_foregroundBlur_3_702"/>
</filter>
<filter id="filter5_f_3_702" x="569.903" y="55.5689" width="32.1307" height="15.8506" filterUnits="userSpaceOnUse" color-interpolation-filters="sRGB">
<feFlood flood-opacity="0" result="BackgroundImageFix"/>
<feBlend mode="normal" in="SourceGraphic" in2="BackgroundImageFix" result="shape"/>
<feGaussianBlur stdDeviation="0.777737" result="effect1_foregroundBlur_3_702"/>
</filter>
<filter id="filter6_f_3_702" x="641.696" y="52.7468" width="35.6761" height="15.8506" filterUnits="userSpaceOnUse" color-interpolation-filters="sRGB">
<feFlood flood-opacity="0" result="BackgroundImageFix"/>
<feBlend mode="normal" in="SourceGraphic" in2="BackgroundImageFix" result="shape"/>
<feGaussianBlur stdDeviation="0.777737" result="effect1_foregroundBlur_3_702"/>
</filter>
<filter id="filter7_f_3_702" x="4.14311" y="4.37492" width="100.882" height="100.881" filterUnits="userSpaceOnUse" color-interpolation-filters="sRGB">
<feFlood flood-opacity="0" result="BackgroundImageFix"/>
<feBlend mode="normal" in="SourceGraphic" in2="BackgroundImageFix" result="shape"/>
<feGaussianBlur stdDeviation="0.776346" result="effect1_foregroundBlur_3_702"/>
</filter>
</defs>
</svg>
